<svg width="489" height="632" viewBox="0 0 489 632" fill="none" xmlns="http://www.w3.org/2000/svg">
<g filter="url(#filter0_d)">
<g clip-path="url(#clip0)">
<rect x="26" y="15.3697" width="437" height="579.204" rx="20" fill="#F3F3F3"/>
<path d="M446 15.3697H43C38.0294 15.3697 34 19.5078 34 24.6123V581.223C34 586.328 38.0294 590.466 43 590.466H446C450.971 590.466 455 586.328 455 581.223V24.6123C455 19.5078 450.971 15.3697 446 15.3697Z" fill="#F3F3F3" fill-opacity="0.85"/>
<path d="M73 415.37C78.2467 415.37 82.5 411.002 82.5 405.614C82.5 400.225 78.2467 395.857 73 395.857C67.7533 395.857 63.5 400.225 63.5 405.614C63.5 411.002 67.7533 415.37 73 415.37Z" fill="white" fill-opacity="0.85" stroke="#B0B0B0"/>
<path d="M104.606 392.769H101.178V402.533H99.7793V392.769H96.3589V391.581H104.606V392.769ZM108.532 402.683C107.457 402.683 106.583 402.322 105.91 401.6C105.236 400.873 104.899 399.903 104.899 398.689V398.433C104.899 397.626 105.048 396.906 105.346 396.274C105.648 395.638 106.068 395.142 106.605 394.785C107.147 394.424 107.733 394.244 108.363 394.244C109.394 394.244 110.194 394.592 110.766 395.29C111.337 395.986 111.623 396.984 111.623 398.283V398.862H106.254C106.273 399.664 106.5 400.313 106.935 400.81C107.374 401.301 107.931 401.548 108.605 401.548C109.083 401.548 109.489 401.447 109.821 401.247C110.153 401.046 110.443 400.78 110.692 400.449L111.52 401.111C110.856 402.159 109.86 402.683 108.532 402.683ZM108.363 395.387C107.816 395.387 107.357 395.593 106.986 396.004C106.615 396.41 106.386 396.982 106.298 397.718H110.268V397.614C110.228 396.906 110.043 396.36 109.711 395.974C109.379 395.582 108.93 395.387 108.363 395.387ZM117.811 400.374C117.811 399.998 117.672 399.708 117.394 399.501C117.121 399.291 116.64 399.11 115.951 398.96C115.268 398.81 114.723 398.629 114.318 398.419C113.917 398.208 113.62 397.957 113.424 397.666C113.234 397.375 113.139 397.029 113.139 396.628C113.139 395.961 113.412 395.397 113.959 394.936C114.511 394.474 115.214 394.244 116.068 394.244C116.967 394.244 117.694 394.482 118.251 394.959C118.812 395.434 119.093 396.044 119.093 396.786H117.731C117.731 396.405 117.572 396.076 117.255 395.801C116.942 395.525 116.547 395.387 116.068 395.387C115.575 395.387 115.189 395.497 114.911 395.718C114.633 395.939 114.494 396.227 114.494 396.584C114.494 396.919 114.623 397.172 114.882 397.342C115.141 397.513 115.607 397.676 116.281 397.831C116.959 397.987 117.509 398.172 117.929 398.388C118.349 398.604 118.659 398.864 118.859 399.17C119.064 399.471 119.166 399.84 119.166 400.276C119.166 401.004 118.883 401.588 118.317 402.028C117.75 402.465 117.016 402.683 116.112 402.683C115.477 402.683 114.916 402.568 114.428 402.338C113.939 402.106 113.556 401.785 113.278 401.374C113.004 400.958 112.868 400.51 112.868 400.028H114.223C114.247 400.494 114.428 400.865 114.765 401.141C115.106 401.412 115.556 401.548 116.112 401.548C116.625 401.548 117.035 401.442 117.343 401.232C117.655 401.016 117.811 400.73 117.811 400.374ZM122.77 392.423V394.394H124.249V395.47H122.77V400.517C122.77 400.842 122.836 401.089 122.968 401.254C123.1 401.414 123.324 401.494 123.642 401.494C123.798 401.494 124.013 401.465 124.286 401.404V402.533C123.93 402.633 123.583 402.683 123.246 402.683C122.641 402.683 122.184 402.495 121.876 402.119C121.569 401.743 121.415 401.209 121.415 400.517V395.47H119.972V394.394H121.415V392.423H122.77Z" fill="black"/>
<path d="M98.9487 414.072V417.937H98.168V408.446H101.316C102.277 408.446 103.034 408.697 103.589 409.202C104.147 409.706 104.427 410.399 104.427 411.281C104.427 412.173 104.158 412.861 103.621 413.348C103.087 413.83 102.313 414.072 101.297 414.072H98.9487ZM98.9487 413.394H101.316C102.074 413.394 102.652 413.209 103.049 412.839C103.447 412.47 103.646 411.955 103.646 411.295C103.646 410.638 103.447 410.117 103.049 409.73C102.656 409.338 102.095 409.139 101.367 409.13H98.9487V413.394ZM108.572 418.067C107.988 418.067 107.459 417.92 106.985 417.624C106.515 417.329 106.149 416.918 105.887 416.392C105.624 415.862 105.493 415.269 105.493 414.613V414.332C105.493 413.655 105.62 413.044 105.874 412.5C106.132 411.957 106.49 411.531 106.947 411.223C107.404 410.91 107.899 410.753 108.432 410.753C109.266 410.753 109.926 411.047 110.413 411.634C110.903 412.216 111.149 413.013 111.149 414.025V414.463H106.248V414.613C106.248 415.412 106.471 416.079 106.915 416.613C107.364 417.144 107.926 417.409 108.604 417.409C109.01 417.409 109.367 417.333 109.676 417.181C109.989 417.029 110.273 416.786 110.527 416.451L111.003 416.823C110.444 417.653 109.634 418.067 108.572 418.067ZM108.432 411.418C107.861 411.418 107.378 411.634 106.985 412.064C106.596 412.494 106.359 413.072 106.274 413.797H110.394V413.713C110.372 413.035 110.184 412.483 109.829 412.057C109.473 411.631 109.008 411.418 108.432 411.418ZM115.802 411.548C115.641 411.519 115.47 411.503 115.288 411.503C114.814 411.503 114.412 411.64 114.081 411.914C113.756 412.183 113.523 412.576 113.383 413.094V417.937H112.628V410.884H113.371L113.383 412.005C113.785 411.17 114.431 410.753 115.319 410.753C115.531 410.753 115.698 410.781 115.821 410.838L115.802 411.548ZM121.121 416.144C121.121 415.758 120.969 415.447 120.664 415.213C120.364 414.977 119.909 414.795 119.299 414.664C118.69 414.53 118.216 414.378 117.877 414.208C117.543 414.035 117.294 413.824 117.128 413.576C116.968 413.328 116.887 413.028 116.887 412.676C116.887 412.12 117.114 411.661 117.566 411.301C118.019 410.936 118.599 410.753 119.306 410.753C120.072 410.753 120.685 410.949 121.146 411.34C121.612 411.727 121.845 412.233 121.845 412.859H121.083C121.083 412.446 120.914 412.103 120.575 411.829C120.241 411.556 119.818 411.418 119.306 411.418C118.806 411.418 118.404 411.533 118.1 411.764C117.799 411.99 117.649 412.286 117.649 412.65C117.649 413.002 117.774 413.276 118.023 413.472C118.277 413.663 118.737 413.838 119.401 414C120.07 414.161 120.569 414.332 120.899 414.514C121.233 414.697 121.481 414.917 121.642 415.173C121.802 415.429 121.883 415.74 121.883 416.105C121.883 416.701 121.648 417.176 121.178 417.532C120.713 417.889 120.103 418.067 119.35 418.067C118.55 418.067 117.901 417.869 117.401 417.474C116.906 417.074 116.659 416.57 116.659 415.962H117.42C117.45 416.418 117.636 416.775 117.979 417.031C118.326 417.283 118.783 417.409 119.35 417.409C119.879 417.409 120.307 417.289 120.632 417.051C120.958 416.811 121.121 416.51 121.121 416.144ZM123.178 414.306C123.178 413.628 123.305 413.018 123.559 412.475C123.817 411.931 124.178 411.509 124.644 411.209C125.114 410.905 125.645 410.753 126.237 410.753C127.151 410.753 127.892 411.083 128.459 411.744C129.026 412.401 129.31 413.272 129.31 414.358V414.521C129.31 415.203 129.181 415.818 128.922 416.366C128.668 416.909 128.309 417.329 127.843 417.624C127.378 417.92 126.847 418.067 126.25 418.067C125.34 418.067 124.6 417.739 124.028 417.083C123.461 416.422 123.178 415.549 123.178 414.463V414.306ZM123.939 414.521C123.939 415.365 124.151 416.058 124.574 416.601C125.002 417.139 125.56 417.409 126.25 417.409C126.936 417.409 127.49 417.139 127.913 416.601C128.34 416.058 128.554 415.343 128.554 414.456V414.306C128.554 413.768 128.457 413.274 128.262 412.826C128.068 412.379 127.795 412.033 127.443 411.79C127.092 411.542 126.69 411.418 126.237 411.418C125.56 411.418 125.008 411.692 124.581 412.239C124.153 412.783 123.939 413.495 123.939 414.378V414.521ZM131.607 410.884L131.633 412.09C131.891 411.655 132.213 411.324 132.598 411.099C132.983 410.868 133.408 410.753 133.874 410.753C134.61 410.753 135.158 410.966 135.518 411.392C135.877 411.818 136.059 412.457 136.063 413.309V417.937H135.308V413.302C135.304 412.672 135.173 412.202 134.915 411.894C134.661 411.585 134.252 411.431 133.689 411.431C133.22 411.431 132.803 411.583 132.439 411.887C132.079 412.187 131.813 412.594 131.639 413.106V417.937H130.884V410.884H131.607ZM142.367 417.937C142.291 417.715 142.242 417.388 142.221 416.953C141.954 417.31 141.613 417.585 141.199 417.781C140.788 417.972 140.352 418.067 139.891 418.067C139.231 418.067 138.696 417.879 138.285 417.501C137.879 417.123 137.676 416.644 137.676 416.066C137.676 415.38 137.953 414.837 138.507 414.436C139.066 414.037 139.842 413.836 140.837 413.836H142.214V413.035C142.214 412.531 142.062 412.136 141.757 411.848C141.457 411.558 141.017 411.412 140.437 411.412C139.908 411.412 139.47 411.55 139.123 411.829C138.776 412.107 138.603 412.442 138.603 412.833L137.841 412.826C137.841 412.266 138.095 411.781 138.603 411.373C139.11 410.96 139.735 410.753 140.475 410.753C141.241 410.753 141.844 410.951 142.284 411.347C142.729 411.737 142.957 412.286 142.97 412.989V416.327C142.97 417.01 143.04 417.52 143.179 417.859V417.937H142.367ZM139.98 417.376C140.488 417.376 140.941 417.25 141.338 416.998C141.74 416.746 142.032 416.41 142.214 415.988V414.436H140.856C140.098 414.445 139.506 414.588 139.079 414.866C138.651 415.141 138.438 415.519 138.438 416.001C138.438 416.397 138.579 416.724 138.863 416.985C139.151 417.246 139.523 417.376 139.98 417.376ZM145.852 417.937H145.09V407.924H145.852V417.937Z" fill="#444444"/>
<path d="M147.449 413.446C147.449 413.341 147.481 413.252 147.546 413.18C147.613 413.105 147.706 413.067 147.823 413.067C147.94 413.067 148.032 413.105 148.1 413.18C148.167 413.252 148.201 413.341 148.201 413.446C148.201 413.552 148.167 413.639 148.1 413.708C148.032 413.775 147.94 413.808 147.823 413.808C147.706 413.808 147.613 413.775 147.546 413.708C147.481 413.639 147.449 413.552 147.449 413.446ZM147.506 419.164L147.194 418.93C147.461 418.563 147.599 418.183 147.607 417.788V417.089H148.122V417.653C148.122 418.279 147.917 418.782 147.506 419.164Z" fill="#B0B0B0"/>
<path d="M71.9893 356.016C71.9893 355.438 71.79 354.993 71.3916 354.68C70.999 354.367 70.2871 354.051 69.2559 353.732C68.2246 353.413 67.4043 353.058 66.7949 352.667C65.6289 351.915 65.0459 350.934 65.0459 349.724C65.0459 348.666 65.4648 347.793 66.3027 347.107C67.1465 346.421 68.2393 346.078 69.5811 346.078C70.4717 346.078 71.2656 346.246 71.9629 346.584C72.6602 346.921 73.208 347.402 73.6064 348.028C74.0049 348.647 74.2041 349.336 74.2041 350.094H71.9893C71.9893 349.409 71.7783 348.873 71.3564 348.488C70.9404 348.097 70.3428 347.902 69.5635 347.902C68.8369 347.902 68.2715 348.061 67.8672 348.38C67.4688 348.699 67.2695 349.144 67.2695 349.715C67.2695 350.197 67.4863 350.6 67.9199 350.925C68.3535 351.244 69.0684 351.557 70.0645 351.864C71.0605 352.165 71.8604 352.511 72.4639 352.902C73.0674 353.287 73.5098 353.732 73.791 354.238C74.0723 354.737 74.2129 355.323 74.2129 355.998C74.2129 357.093 73.8027 357.966 72.9824 358.615C72.168 359.259 71.0605 359.581 69.6602 359.581C68.7344 359.581 67.8818 359.407 67.1025 359.057C66.3291 358.702 65.7256 358.215 65.292 357.595C64.8643 356.976 64.6504 356.254 64.6504 355.429H66.874C66.874 356.175 67.1143 356.753 67.5947 357.162C68.0752 357.571 68.7637 357.776 69.6602 357.776C70.4336 357.776 71.0137 357.617 71.4004 357.297C71.793 356.973 71.9893 356.546 71.9893 356.016ZM75.5576 354.427C75.5576 353.471 75.7422 352.61 76.1113 351.846C76.4805 351.076 76.999 350.485 77.667 350.077C78.335 349.662 79.1025 349.453 79.9697 349.453C81.2529 349.453 82.293 349.879 83.0898 350.727C83.8926 351.575 84.3262 352.701 84.3906 354.102L84.3994 354.617C84.3994 355.579 84.2178 356.44 83.8545 357.198C83.4971 357.957 82.9814 358.543 82.3076 358.958C81.6396 359.374 80.8662 359.581 79.9873 359.581C78.6455 359.581 77.5703 359.123 76.7617 358.209C75.959 357.288 75.5576 356.064 75.5576 354.536V354.427ZM77.6934 354.617C77.6934 355.621 77.8955 356.41 78.2998 356.982C78.7041 357.547 79.2666 357.83 79.9873 357.83C80.708 357.83 81.2676 357.541 81.666 356.964C82.0703 356.385 82.2725 355.54 82.2725 354.427C82.2725 353.44 82.0645 352.659 81.6484 352.08C81.2383 351.503 80.6787 351.214 79.9697 351.214C79.2725 351.214 78.7188 351.5 78.3086 352.071C77.8984 352.637 77.6934 353.485 77.6934 354.617ZM88.2139 349.634L88.2754 350.654C88.9434 349.854 89.8574 349.453 91.0176 349.453C92.2891 349.453 93.1592 349.954 93.6279 350.952C94.3193 349.954 95.292 349.453 96.5459 349.453C97.5947 349.453 98.374 349.751 98.8838 350.348C99.3994 350.943 99.6631 351.822 99.6748 352.983V359.4H97.5391V353.046C97.5391 352.426 97.4072 351.972 97.1436 351.683C96.8799 351.394 96.4434 351.25 95.834 351.25C95.3477 351.25 94.9492 351.385 94.6387 351.656C94.334 351.921 94.1201 352.27 93.9971 352.704L94.0059 359.4H91.8701V352.974C91.8408 351.825 91.2695 351.25 90.1562 351.25C89.3008 351.25 88.6943 351.608 88.3369 352.324V359.4H86.2012V349.634H88.2139ZM106.056 359.581C104.702 359.581 103.603 359.145 102.76 358.272C101.922 357.394 101.503 356.226 101.503 354.77V354.5C101.503 353.524 101.685 352.655 102.048 351.891C102.417 351.121 102.933 350.521 103.595 350.094C104.257 349.667 104.995 349.453 105.81 349.453C107.104 349.453 108.103 349.879 108.807 350.727C109.516 351.575 109.87 352.776 109.87 354.328V355.213H103.656C103.721 356.019 103.981 356.656 104.438 357.126C104.901 357.595 105.481 357.83 106.179 357.83C107.157 357.83 107.954 357.424 108.569 356.611L109.721 357.74C109.34 358.323 108.83 358.778 108.191 359.103C107.559 359.422 106.847 359.581 106.056 359.581ZM105.801 351.214C105.215 351.214 104.74 351.424 104.377 351.846C104.019 352.267 103.791 352.854 103.691 353.605H107.761V353.443C107.714 352.709 107.523 352.155 107.189 351.783C106.855 351.404 106.393 351.214 105.801 351.214ZM111.136 354.445C111.136 352.941 111.476 351.734 112.155 350.825C112.835 349.911 113.746 349.453 114.889 349.453C115.896 349.453 116.711 349.815 117.332 350.537V345.537H119.468V359.4H117.534L117.429 358.39C116.79 359.184 115.937 359.581 114.871 359.581C113.758 359.581 112.855 359.121 112.164 358.2C111.478 357.28 111.136 356.028 111.136 354.445ZM113.271 354.634C113.271 355.627 113.456 356.404 113.825 356.964C114.2 357.517 114.73 357.794 115.416 357.794C116.289 357.794 116.928 357.394 117.332 356.594V352.423C116.939 351.641 116.307 351.25 115.434 351.25C114.742 351.25 114.209 351.533 113.834 352.099C113.459 352.659 113.271 353.504 113.271 354.634ZM127.378 359.4C127.284 359.214 127.202 358.91 127.132 358.489C126.452 359.217 125.62 359.581 124.636 359.581C123.681 359.581 122.901 359.301 122.298 358.741C121.694 358.181 121.393 357.49 121.393 356.666C121.393 355.624 121.768 354.827 122.518 354.274C123.273 353.714 124.352 353.434 125.752 353.434H127.062V352.793C127.062 352.288 126.924 351.885 126.648 351.584C126.373 351.277 125.954 351.123 125.392 351.123C124.905 351.123 124.507 351.25 124.196 351.503C123.886 351.75 123.73 352.065 123.73 352.45H121.595C121.595 351.915 121.768 351.416 122.113 350.952C122.459 350.482 122.928 350.116 123.519 349.851C124.117 349.586 124.782 349.453 125.515 349.453C126.628 349.453 127.516 349.743 128.178 350.32C128.84 350.892 129.18 351.698 129.197 352.74V357.144C129.197 358.022 129.317 358.724 129.558 359.247V359.4H127.378ZM125.031 357.821C125.453 357.821 125.849 357.715 126.218 357.505C126.593 357.294 126.874 357.012 127.062 356.656V354.815H125.91C125.119 354.815 124.524 354.957 124.126 355.239C123.727 355.523 123.528 355.922 123.528 356.44C123.528 356.861 123.663 357.198 123.933 357.451C124.208 357.698 124.574 357.821 125.031 357.821ZM134.62 356.259L136.554 349.634H138.83L135.051 360.88C134.471 362.523 133.486 363.345 132.098 363.345C131.787 363.345 131.444 363.291 131.069 363.183V361.485L131.474 361.513C132.013 361.513 132.417 361.41 132.687 361.206C132.962 361.007 133.179 360.67 133.337 360.194L133.645 359.355L130.305 349.634H132.607L134.62 356.259Z" fill="#222222"/>
<path d="M74 469.798C79.2467 469.798 83.5 465.431 83.5 460.042C83.5 454.654 79.2467 450.286 74 450.286C68.7533 450.286 64.5 454.654 64.5 460.042C64.5 465.431 68.7533 469.798 74 469.798Z" fill="#444444" stroke="#B0B0B0"/>
<path d="M101.38 452.08C100.174 451.724 99.2949 451.288 98.7432 450.771C98.1963 450.249 97.9229 449.607 97.9229 448.845C97.9229 447.983 98.2573 447.271 98.9263 446.709C99.6001 446.142 100.474 445.859 101.548 445.859C102.281 445.859 102.933 446.005 103.504 446.296C104.08 446.586 104.524 446.988 104.837 447.499C105.154 448.011 105.313 448.57 105.313 449.176H103.899C103.899 448.515 103.694 447.996 103.284 447.619C102.874 447.238 102.295 447.048 101.548 447.048C100.855 447.048 100.313 447.205 99.9224 447.522C99.5366 447.833 99.3438 448.266 99.3438 448.823C99.3438 449.27 99.5269 449.647 99.8931 449.959C100.264 450.265 100.892 450.545 101.775 450.801C102.664 451.056 103.357 451.34 103.856 451.651C104.358 451.957 104.73 452.316 104.969 452.726C105.213 453.138 105.335 453.622 105.335 454.178C105.335 455.066 104.998 455.778 104.324 456.314C103.65 456.846 102.75 457.111 101.622 457.111C100.889 457.111 100.206 456.969 99.5708 456.683C98.936 456.393 98.4453 455.996 98.0986 455.495C97.7568 454.993 97.5859 454.424 97.5859 453.787H98.9995C98.9995 454.45 99.2363 454.973 99.71 455.359C100.189 455.74 100.826 455.931 101.622 455.931C102.364 455.931 102.933 455.775 103.328 455.464C103.724 455.154 103.921 454.73 103.921 454.194C103.921 453.657 103.738 453.243 103.372 452.952C103.006 452.656 102.342 452.366 101.38 452.08ZM108.77 446.852V448.823H110.25V449.899H108.77V454.946C108.77 455.271 108.836 455.518 108.968 455.683C109.1 455.843 109.324 455.923 109.642 455.923C109.798 455.923 110.013 455.893 110.286 455.833V456.961C109.93 457.062 109.583 457.111 109.246 457.111C108.641 457.111 108.184 456.923 107.877 456.548C107.569 456.172 107.415 455.638 107.415 454.946V449.899H105.972V448.823H107.415V446.852H108.77ZM116.731 456.156C116.204 456.793 115.43 457.111 114.41 457.111C113.565 457.111 112.92 456.861 112.476 456.36C112.037 455.853 111.815 455.106 111.81 454.118V448.823H113.165V454.081C113.165 455.314 113.653 455.931 114.629 455.931C115.665 455.931 116.353 455.535 116.695 454.742V448.823H118.05V456.961H116.761L116.731 456.156ZM119.786 452.825C119.786 451.576 120.074 450.573 120.65 449.816C121.226 449.054 121.981 448.673 122.913 448.673C123.841 448.673 124.576 448.998 125.118 449.651V445.408H126.473V456.961H125.228L125.162 456.089C124.62 456.77 123.865 457.111 122.898 457.111C121.981 457.111 121.231 456.726 120.65 455.954C120.074 455.182 119.786 454.173 119.786 452.93V452.825ZM121.141 452.982C121.141 453.905 121.326 454.627 121.697 455.149C122.068 455.671 122.581 455.931 123.235 455.931C124.095 455.931 124.722 455.535 125.118 454.742V451.004C124.712 450.237 124.09 449.854 123.25 449.854C122.586 449.854 122.068 450.117 121.697 450.644C121.326 451.169 121.141 451.95 121.141 452.982ZM131.175 454.923L133.021 448.823H134.471L131.285 458.217C130.792 459.572 130.008 460.249 128.934 460.249L128.677 460.226L128.172 460.128V459L128.538 459.03C128.997 459.03 129.354 458.934 129.607 458.744C129.866 458.553 130.079 458.205 130.245 457.699L130.545 456.871L127.718 448.823H129.197L131.175 454.923Z" fill="black"/>
<path d="M97 453.11H134.654V453.877H97V453.11Z" fill="black"/>
<path d="M99.9487 468.5V472.366H99.168V462.875H102.316C103.277 462.875 104.034 463.126 104.589 463.631C105.147 464.135 105.427 464.828 105.427 465.71C105.427 466.602 105.158 467.29 104.621 467.776C104.087 468.259 103.313 468.5 102.297 468.5H99.9487ZM99.9487 467.823H102.316C103.074 467.823 103.652 467.638 104.049 467.268C104.447 466.898 104.646 466.384 104.646 465.724C104.646 465.067 104.447 464.546 104.049 464.158C103.656 463.767 103.095 463.568 102.367 463.559H99.9487V467.823ZM109.572 472.496C108.988 472.496 108.459 472.348 107.985 472.053C107.515 471.758 107.149 471.347 106.887 470.821C106.624 470.29 106.493 469.698 106.493 469.042V468.761C106.493 468.083 106.62 467.472 106.874 466.929C107.132 466.386 107.49 465.96 107.947 465.652C108.404 465.338 108.899 465.182 109.432 465.182C110.266 465.182 110.926 465.476 111.413 466.062C111.903 466.645 112.149 467.442 112.149 468.454V468.892H107.248V469.042C107.248 469.841 107.471 470.508 107.915 471.042C108.364 471.573 108.926 471.838 109.604 471.838C110.01 471.838 110.367 471.762 110.676 471.61C110.989 471.458 111.273 471.215 111.527 470.88L112.003 471.252C111.444 472.081 110.634 472.496 109.572 472.496ZM109.432 465.847C108.861 465.847 108.378 466.062 107.985 466.493C107.596 466.923 107.359 467.501 107.274 468.226H111.394V468.142C111.372 467.464 111.184 466.912 110.829 466.485C110.473 466.06 110.008 465.847 109.432 465.847ZM116.802 465.977C116.641 465.947 116.47 465.932 116.288 465.932C115.814 465.932 115.412 466.069 115.081 466.343C114.756 466.612 114.523 467.005 114.383 467.523V472.366H113.628V465.313H114.371L114.383 466.434C114.785 465.599 115.431 465.182 116.319 465.182C116.531 465.182 116.698 465.21 116.821 465.267L116.802 465.977ZM122.121 470.573C122.121 470.187 121.969 469.875 121.664 469.641C121.364 469.406 120.909 469.223 120.299 469.093C119.69 468.958 119.216 468.806 118.877 468.637C118.543 468.463 118.294 468.253 118.128 468.004C117.968 467.757 117.887 467.457 117.887 467.105C117.887 466.549 118.114 466.09 118.566 465.73C119.019 465.365 119.599 465.182 120.306 465.182C121.072 465.182 121.685 465.377 122.146 465.769C122.612 466.156 122.845 466.662 122.845 467.288H122.083C122.083 466.875 121.914 466.532 121.575 466.258C121.241 465.984 120.818 465.847 120.306 465.847C119.806 465.847 119.404 465.962 119.1 466.193C118.799 466.419 118.649 466.715 118.649 467.079C118.649 467.431 118.774 467.705 119.023 467.901C119.277 468.092 119.737 468.267 120.401 468.428C121.07 468.59 121.569 468.761 121.899 468.943C122.233 469.126 122.481 469.346 122.642 469.602C122.802 469.858 122.883 470.169 122.883 470.534C122.883 471.129 122.648 471.605 122.178 471.961C121.713 472.318 121.103 472.496 120.35 472.496C119.55 472.496 118.901 472.298 118.401 471.903C117.906 471.503 117.659 470.999 117.659 470.391H118.42C118.45 470.847 118.636 471.203 118.979 471.46C119.326 471.712 119.783 471.838 120.35 471.838C120.879 471.838 121.307 471.718 121.632 471.48C121.958 471.24 122.121 470.938 122.121 470.573ZM124.178 468.735C124.178 468.057 124.305 467.447 124.559 466.903C124.817 466.36 125.178 465.938 125.644 465.638C126.114 465.334 126.645 465.182 127.237 465.182C128.151 465.182 128.892 465.512 129.459 466.173C130.026 466.83 130.31 467.7 130.31 468.787V468.95C130.31 469.632 130.181 470.247 129.922 470.795C129.668 471.338 129.309 471.758 128.843 472.053C128.378 472.348 127.847 472.496 127.25 472.496C126.34 472.496 125.6 472.168 125.028 471.511C124.461 470.851 124.178 469.978 124.178 468.892V468.735ZM124.939 468.95C124.939 469.793 125.151 470.487 125.574 471.03C126.002 471.568 126.56 471.838 127.25 471.838C127.936 471.838 128.49 471.568 128.913 471.03C129.34 470.487 129.554 469.772 129.554 468.884V468.735C129.554 468.196 129.457 467.702 129.262 467.255C129.068 466.808 128.795 466.462 128.443 466.219C128.092 465.971 127.69 465.847 127.237 465.847C126.56 465.847 126.008 466.121 125.581 466.668C125.153 467.212 124.939 467.924 124.939 468.806V468.95ZM132.607 465.313L132.633 466.518C132.891 466.084 133.213 465.753 133.598 465.527C133.983 465.297 134.408 465.182 134.874 465.182C135.61 465.182 136.158 465.395 136.518 465.821C136.877 466.247 137.059 466.886 137.063 467.737V472.366H136.308V467.731C136.304 467.101 136.173 466.631 135.915 466.323C135.661 466.014 135.252 465.86 134.689 465.86C134.22 465.86 133.803 466.012 133.439 466.316C133.079 466.616 132.813 467.023 132.639 467.535V472.366H131.884V465.313H132.607ZM143.367 472.366C143.291 472.144 143.242 471.816 143.221 471.382C142.954 471.738 142.613 472.014 142.199 472.21C141.788 472.401 141.352 472.496 140.891 472.496C140.231 472.496 139.696 472.307 139.285 471.929C138.879 471.552 138.676 471.073 138.676 470.495C138.676 469.809 138.953 469.265 139.507 468.865C140.066 468.465 140.842 468.265 141.837 468.265H143.214V467.464C143.214 466.96 143.062 466.565 142.757 466.277C142.457 465.986 142.017 465.841 141.437 465.841C140.908 465.841 140.47 465.979 140.123 466.258C139.776 466.536 139.603 466.871 139.603 467.262L138.841 467.255C138.841 466.695 139.095 466.21 139.603 465.802C140.11 465.389 140.735 465.182 141.475 465.182C142.241 465.182 142.844 465.379 143.284 465.776C143.729 466.166 143.957 466.715 143.97 467.418V470.756C143.97 471.439 144.04 471.949 144.179 472.288V472.366H143.367ZM140.98 471.805C141.488 471.805 141.941 471.679 142.338 471.427C142.74 471.175 143.032 470.839 143.214 470.417V468.865H141.856C141.098 468.874 140.506 469.017 140.079 469.295C139.651 469.569 139.438 469.947 139.438 470.43C139.438 470.825 139.579 471.153 139.863 471.414C140.151 471.675 140.523 471.805 140.98 471.805ZM146.852 472.366H146.09V462.353H146.852V472.366Z" fill="#444444"/>
<path d="M148.449 467.875C148.449 467.77 148.481 467.681 148.546 467.609C148.613 467.534 148.706 467.496 148.823 467.496C148.94 467.496 149.032 467.534 149.1 467.609C149.167 467.681 149.201 467.77 149.201 467.875C149.201 467.981 149.167 468.068 149.1 468.137C149.032 468.204 148.94 468.236 148.823 468.236C148.706 468.236 148.613 468.204 148.546 468.137C148.481 468.068 148.449 467.981 148.449 467.875ZM148.506 473.593L148.194 473.359C148.461 472.991 148.599 472.611 148.607 472.217V471.518H149.122V472.081C149.122 472.708 148.917 473.211 148.506 473.593Z" fill="#B0B0B0"/>
<path d="M98 469.028H147.924V469.693H98V469.028Z" fill="#444444"/>
<path d="M69.3536 460.706C69.1583 460.506 68.8417 460.506 68.6464 460.706C68.4512 460.907 68.4512 461.232 68.6464 461.433L69.3536 460.706ZM72 464.15L71.6464 464.514L72 464.876L72.3536 464.514L72 464.15ZM80.3536 456.298C80.5488 456.097 80.5488 455.772 80.3536 455.571C80.1583 455.371 79.8417 455.371 79.6464 455.571L80.3536 456.298ZM68.6464 461.433L71.6464 464.514L72.3536 463.787L69.3536 460.706L68.6464 461.433ZM72.3536 464.514L80.3536 456.298L79.6464 455.571L71.6464 463.787L72.3536 464.514Z" fill="white" fill-opacity="0.85"/>
<path d="M73 259.272C78.2467 259.272 82.5 254.904 82.5 249.516C82.5 244.128 78.2467 239.76 73 239.76C67.7533 239.76 63.5 244.128 63.5 249.516C63.5 254.904 67.7533 259.272 73 259.272Z" fill="white" fill-opacity="0.85" stroke="#B0B0B0"/>
<path d="M99.0542 235.484L102.54 244.419L106.027 235.484H107.851V246.435H106.444V242.17L106.576 237.567L103.075 246.435H101.998L98.5049 237.59L98.644 242.17V246.435H97.2378V235.484H99.0542ZM112.714 244.397L114.56 238.297H116.01L112.824 247.691C112.331 249.046 111.547 249.722 110.473 249.722L110.216 249.7L109.711 249.601V248.474L110.077 248.503C110.536 248.503 110.893 248.408 111.146 248.218C111.405 248.027 111.618 247.679 111.784 247.173L112.084 246.345L109.257 238.297H110.736L112.714 244.397ZM124.301 241.554C123.095 241.198 122.216 240.761 121.664 240.245C121.117 239.723 120.844 239.081 120.844 238.319C120.844 237.456 121.178 236.745 121.847 236.183C122.521 235.616 123.395 235.333 124.469 235.333C125.202 235.333 125.853 235.479 126.425 235.769C127.001 236.06 127.445 236.461 127.758 236.973C128.075 237.484 128.234 238.044 128.234 238.65H126.82C126.82 237.988 126.615 237.47 126.205 237.093C125.795 236.712 125.216 236.522 124.469 236.522C123.776 236.522 123.234 236.679 122.843 236.995C122.457 237.307 122.265 237.74 122.265 238.297C122.265 238.743 122.448 239.121 122.814 239.432C123.185 239.738 123.812 240.019 124.696 240.274C125.585 240.53 126.278 240.814 126.776 241.125C127.279 241.431 127.65 241.789 127.89 242.2C128.134 242.612 128.256 243.096 128.256 243.652C128.256 244.539 127.919 245.252 127.245 245.788C126.571 246.32 125.67 246.585 124.542 246.585C123.81 246.585 123.126 246.442 122.492 246.157C121.857 245.866 121.366 245.47 121.019 244.969C120.678 244.467 120.507 243.898 120.507 243.261H121.92C121.92 243.923 122.157 244.447 122.631 244.833C123.109 245.214 123.747 245.405 124.542 245.405C125.285 245.405 125.853 245.249 126.249 244.938C126.645 244.628 126.842 244.204 126.842 243.668C126.842 243.13 126.659 242.717 126.293 242.426C125.927 242.13 125.263 241.84 124.301 241.554ZM133.141 246.585C132.067 246.585 131.193 246.225 130.519 245.503C129.845 244.776 129.508 243.805 129.508 242.591V242.336C129.508 241.528 129.657 240.808 129.955 240.177C130.258 239.54 130.678 239.044 131.215 238.688C131.757 238.326 132.343 238.147 132.973 238.147C134.003 238.147 134.804 238.495 135.375 239.192C135.946 239.888 136.232 240.887 136.232 242.186V242.765H130.863C130.883 243.567 131.11 244.216 131.544 244.713C131.984 245.204 132.541 245.45 133.214 245.45C133.693 245.45 134.098 245.35 134.43 245.149C134.762 244.948 135.053 244.682 135.302 244.351L136.129 245.014C135.465 246.061 134.469 246.585 133.141 246.585ZM132.973 239.29C132.426 239.29 131.967 239.495 131.596 239.907C131.225 240.312 130.995 240.884 130.907 241.621H134.877V241.516C134.838 240.808 134.652 240.262 134.32 239.876C133.988 239.485 133.539 239.29 132.973 239.29ZM140.985 245.45C141.469 245.45 141.891 245.299 142.252 244.998C142.614 244.698 142.814 244.322 142.853 243.87H144.135C144.11 244.337 143.954 244.781 143.666 245.202C143.378 245.623 142.992 245.959 142.509 246.209C142.03 246.46 141.522 246.585 140.985 246.585C139.906 246.585 139.047 246.217 138.407 245.48C137.772 244.738 137.455 243.725 137.455 242.441V242.208C137.455 241.415 137.597 240.711 137.88 240.095C138.163 239.478 138.568 238.999 139.096 238.658C139.628 238.317 140.255 238.147 140.978 238.147C141.867 238.147 142.604 238.42 143.19 238.966C143.781 239.512 144.096 240.222 144.135 241.095H142.853C142.814 240.568 142.619 240.137 142.267 239.801C141.92 239.46 141.491 239.29 140.978 239.29C140.29 239.29 139.755 239.545 139.374 240.057C138.998 240.563 138.81 241.298 138.81 242.261V242.523C138.81 243.461 138.998 244.184 139.374 244.69C139.75 245.197 140.287 245.45 140.985 245.45ZM145.299 242.29C145.299 241.493 145.451 240.777 145.753 240.14C146.061 239.503 146.486 239.011 147.028 238.665C147.575 238.319 148.197 238.147 148.896 238.147C149.975 238.147 150.846 238.53 151.51 239.297C152.179 240.064 152.514 241.085 152.514 242.358V242.456C152.514 243.249 152.365 243.96 152.067 244.593C151.774 245.219 151.352 245.708 150.8 246.059C150.253 246.411 149.623 246.585 148.91 246.585C147.836 246.585 146.964 246.202 146.295 245.435C145.631 244.668 145.299 243.652 145.299 242.389V242.29ZM146.662 242.456C146.662 243.358 146.864 244.083 147.27 244.63C147.68 245.176 148.227 245.45 148.91 245.45C149.599 245.45 150.146 245.174 150.551 244.623C150.956 244.066 151.159 243.289 151.159 242.29C151.159 241.398 150.951 240.676 150.536 240.125C150.126 239.568 149.579 239.29 148.896 239.29C148.227 239.29 147.687 239.563 147.277 240.109C146.867 240.656 146.662 241.438 146.662 242.456ZM159.105 245.63C158.578 246.267 157.804 246.585 156.784 246.585C155.939 246.585 155.294 246.335 154.85 245.833C154.411 245.327 154.188 244.579 154.184 243.592V238.297H155.539V243.555C155.539 244.788 156.027 245.405 157.003 245.405C158.039 245.405 158.727 245.009 159.069 244.216V238.297H160.424V246.435H159.135L159.105 245.63ZM163.771 238.297L163.815 239.319C164.42 238.538 165.211 238.147 166.188 238.147C167.863 238.147 168.708 239.117 168.722 241.057V246.435H167.367V241.05C167.362 240.463 167.23 240.029 166.972 239.749C166.718 239.467 166.32 239.328 165.778 239.328C165.338 239.328 164.953 239.448 164.621 239.688C164.289 239.929 164.03 240.245 163.844 240.636V246.435H162.489V238.297H163.771ZM170.436 242.299C170.436 241.05 170.724 240.046 171.3 239.29C171.876 238.528 172.631 238.147 173.563 238.147C174.491 238.147 175.226 238.472 175.768 239.124V234.882H177.123V246.435H175.878L175.812 245.562C175.27 246.244 174.516 246.585 173.549 246.585C172.631 246.585 171.881 246.2 171.3 245.428C170.724 244.655 170.436 243.647 170.436 242.403V242.299ZM171.791 242.456C171.791 243.379 171.977 244.101 172.348 244.623C172.719 245.144 173.231 245.405 173.886 245.405C174.745 245.405 175.373 245.009 175.768 244.216V240.478C175.363 239.711 174.74 239.328 173.9 239.328C173.236 239.328 172.719 239.591 172.348 240.117C171.977 240.643 171.791 241.424 171.791 242.456ZM190.241 236.672H186.813V246.435H185.414V236.672H181.994V235.484H190.241V236.672ZM195.668 246.435C195.59 246.275 195.526 245.988 195.478 245.578C194.848 246.249 194.096 246.585 193.222 246.585C192.44 246.585 191.798 246.36 191.295 245.908C190.797 245.452 190.548 244.875 190.548 244.179C190.548 243.332 190.861 242.674 191.486 242.208C192.116 241.737 193 241.501 194.137 241.501H195.456V240.862C195.456 240.375 195.314 239.989 195.031 239.703C194.748 239.413 194.33 239.267 193.778 239.267C193.295 239.267 192.89 239.392 192.562 239.643C192.235 239.893 192.072 240.197 192.072 240.553H190.709C190.709 240.147 190.849 239.756 191.127 239.38C191.41 238.999 191.791 238.698 192.27 238.477C192.753 238.256 193.283 238.147 193.859 238.147C194.772 238.147 195.487 238.382 196.005 238.853C196.522 239.319 196.791 239.964 196.811 240.787V244.532C196.811 245.28 196.903 245.873 197.089 246.315V246.435H195.668ZM193.419 245.374C193.844 245.374 194.247 245.261 194.628 245.036C195.009 244.811 195.285 244.517 195.456 244.156V242.487H194.394C192.733 242.487 191.903 242.986 191.903 243.983C191.903 244.419 192.045 244.76 192.328 245.006C192.611 245.252 192.975 245.374 193.419 245.374ZM203.549 244.277C203.549 243.901 203.41 243.61 203.131 243.404C202.858 243.193 202.377 243.012 201.688 242.862C201.005 242.712 200.46 242.532 200.055 242.321C199.655 242.111 199.357 241.859 199.162 241.568C198.971 241.278 198.876 240.932 198.876 240.53C198.876 239.864 199.149 239.3 199.696 238.839C200.248 238.377 200.951 238.147 201.806 238.147C202.704 238.147 203.432 238.385 203.988 238.861C204.55 239.337 204.831 239.947 204.831 240.688H203.468C203.468 240.307 203.31 239.979 202.992 239.703C202.68 239.427 202.284 239.29 201.806 239.29C201.312 239.29 200.927 239.399 200.648 239.62C200.37 239.841 200.231 240.13 200.231 240.486C200.231 240.822 200.36 241.074 200.619 241.245C200.878 241.415 201.344 241.579 202.018 241.734C202.697 241.89 203.246 242.075 203.666 242.29C204.086 242.506 204.396 242.767 204.596 243.073C204.801 243.374 204.904 243.742 204.904 244.179C204.904 244.906 204.621 245.49 204.054 245.931C203.488 246.367 202.753 246.585 201.85 246.585C201.215 246.585 200.653 246.47 200.165 246.24C199.677 246.009 199.293 245.688 199.015 245.277C198.742 244.861 198.605 244.412 198.605 243.93H199.96C199.984 244.397 200.165 244.767 200.502 245.044C200.844 245.315 201.293 245.45 201.85 245.45C202.362 245.45 202.772 245.345 203.08 245.134C203.393 244.918 203.549 244.633 203.549 244.277ZM208.881 242.667L208.031 243.577V246.435H206.676V234.882H208.031V241.869L208.756 240.975L211.225 238.297H212.873L209.789 241.697L213.231 246.435H211.642L208.881 242.667Z" fill="black"/>
<path d="M99.8755 259.277L100.161 260.751L100.51 259.343L102.516 252.348H103.221L105.201 259.343L105.544 260.764L105.849 259.277L107.518 252.348H108.318L105.95 261.84H105.201L103.106 254.415L102.872 253.476L102.643 254.415L100.498 261.84H99.7485L97.3872 252.348H98.187L99.8755 259.277ZM109.023 258.208C109.023 257.53 109.149 256.92 109.403 256.377C109.662 255.834 110.023 255.412 110.489 255.112C110.959 254.808 111.49 254.656 112.082 254.656C112.996 254.656 113.737 254.986 114.304 255.647C114.871 256.303 115.154 257.174 115.154 258.261V258.424C115.154 259.106 115.025 259.721 114.767 260.268C114.513 260.812 114.154 261.232 113.688 261.526C113.223 261.822 112.691 261.97 112.095 261.97C111.185 261.97 110.444 261.641 109.873 260.985C109.306 260.325 109.023 259.452 109.023 258.365V258.208ZM109.784 258.424C109.784 259.267 109.996 259.96 110.419 260.503C110.846 261.042 111.405 261.312 112.095 261.312C112.78 261.312 113.335 261.042 113.758 260.503C114.185 259.96 114.399 259.245 114.399 258.358V258.208C114.399 257.67 114.302 257.176 114.107 256.728C113.912 256.282 113.639 255.936 113.288 255.692C112.937 255.445 112.535 255.32 112.082 255.32C111.405 255.32 110.853 255.595 110.425 256.142C109.998 256.685 109.784 257.398 109.784 258.28V258.424ZM119.902 255.451C119.742 255.421 119.57 255.406 119.388 255.406C118.914 255.406 118.512 255.542 118.182 255.816C117.856 256.085 117.624 256.479 117.484 256.996V261.84H116.729V254.786H117.471L117.484 255.908C117.886 255.073 118.531 254.656 119.42 254.656C119.632 254.656 119.799 254.684 119.921 254.74L119.902 255.451ZM122.74 258.287L121.87 259.147V261.84H121.108V251.827H121.87V258.235L122.587 257.439L125.215 254.786H126.174L123.26 257.758L126.428 261.84H125.52L122.74 258.287Z" fill="#444444"/>
<path d="M127.01 257.349C127.01 257.244 127.042 257.155 127.106 257.083C127.174 257.008 127.266 256.97 127.383 256.97C127.5 256.97 127.593 257.008 127.66 257.083C127.728 257.155 127.761 257.244 127.761 257.349C127.761 257.454 127.728 257.542 127.66 257.61C127.593 257.677 127.5 257.71 127.383 257.71C127.266 257.71 127.174 257.677 127.106 257.61C127.042 257.542 127.01 257.454 127.01 257.349ZM127.067 263.067L126.755 262.833C127.021 262.465 127.159 262.085 127.168 261.691V260.991H127.682V261.555C127.682 262.181 127.477 262.685 127.067 263.067Z" fill="#B0B0B0"/>
<path d="M73 313.701C78.2467 313.701 82.5 309.333 82.5 303.945C82.5 298.557 78.2467 294.189 73 294.189C67.7533 294.189 63.5 298.557 63.5 303.945C63.5 309.333 67.7533 313.701 73 313.701Z" fill="white" fill-opacity="0.85" stroke="#B0B0B0"/>
<path d="M97.2378 300.864V289.912H100.724C101.881 289.912 102.75 290.158 103.331 290.65C103.917 291.141 104.21 291.868 104.21 292.831C104.21 293.342 104.069 293.796 103.786 294.192C103.502 294.583 103.117 294.887 102.628 295.103C103.205 295.268 103.659 295.583 103.991 296.05C104.328 296.512 104.496 297.063 104.496 297.705C104.496 298.688 104.186 299.46 103.566 300.022C102.946 300.584 102.069 300.864 100.936 300.864H97.2378ZM98.644 295.741V299.683H100.966C101.62 299.683 102.135 299.51 102.511 299.164C102.892 298.813 103.082 298.331 103.082 297.719C103.082 296.401 102.384 295.741 100.988 295.741H98.644ZM98.644 294.583H100.768C101.383 294.583 101.874 294.425 102.24 294.11C102.611 293.793 102.797 293.365 102.797 292.823C102.797 292.221 102.626 291.786 102.284 291.514C101.942 291.238 101.422 291.101 100.724 291.101H98.644V294.583ZM111.264 300.059C110.736 300.695 109.962 301.014 108.942 301.014C108.097 301.014 107.453 300.763 107.008 300.262C106.569 299.756 106.347 299.008 106.342 298.02V292.725H107.697V297.983C107.697 299.217 108.185 299.834 109.162 299.834C110.197 299.834 110.885 299.437 111.227 298.645V292.725H112.582V300.864H111.293L111.264 300.059ZM117.24 298.825L119.086 292.725H120.536L117.35 302.12C116.857 303.474 116.073 304.151 114.999 304.151L114.743 304.129L114.237 304.03V302.902L114.603 302.932C115.062 302.932 115.419 302.837 115.673 302.647C115.932 302.456 116.144 302.108 116.31 301.601L116.61 300.774L113.783 292.725H115.263L117.24 298.825ZM131.566 296.028H127.091V300.864H125.685V289.912H132.292V291.101H127.091V294.847H131.566V296.028ZM133.244 296.719C133.244 295.922 133.395 295.205 133.698 294.569C134.005 293.932 134.43 293.44 134.972 293.094C135.519 292.748 136.142 292.575 136.84 292.575C137.919 292.575 138.791 292.958 139.455 293.726C140.124 294.493 140.458 295.513 140.458 296.787V296.884C140.458 297.677 140.309 298.389 140.011 299.022C139.718 299.648 139.296 300.137 138.744 300.488C138.197 300.839 137.567 301.014 136.854 301.014C135.78 301.014 134.909 300.631 134.24 299.864C133.576 299.097 133.244 298.081 133.244 296.818V296.719ZM134.606 296.884C134.606 297.787 134.809 298.512 135.214 299.059C135.624 299.605 136.171 299.879 136.854 299.879C137.543 299.879 138.09 299.603 138.495 299.051C138.9 298.495 139.103 297.717 139.103 296.719C139.103 295.827 138.896 295.105 138.48 294.553C138.07 293.997 137.523 293.718 136.84 293.718C136.171 293.718 135.631 293.991 135.221 294.538C134.811 295.085 134.606 295.867 134.606 296.884ZM141.798 296.719C141.798 295.922 141.95 295.205 142.252 294.569C142.56 293.932 142.985 293.44 143.527 293.094C144.074 292.748 144.696 292.575 145.395 292.575C146.474 292.575 147.345 292.958 148.009 293.726C148.678 294.493 149.013 295.513 149.013 296.787V296.884C149.013 297.677 148.864 298.389 148.566 299.022C148.273 299.648 147.851 300.137 147.299 300.488C146.752 300.839 146.122 301.014 145.409 301.014C144.335 301.014 143.463 300.631 142.794 299.864C142.13 299.097 141.798 298.081 141.798 296.818V296.719ZM143.161 296.884C143.161 297.787 143.363 298.512 143.769 299.059C144.179 299.605 144.726 299.879 145.409 299.879C146.098 299.879 146.645 299.603 147.05 299.051C147.455 298.495 147.658 297.717 147.658 296.719C147.658 295.827 147.45 295.105 147.035 294.553C146.625 293.997 146.078 293.718 145.395 293.718C144.726 293.718 144.186 293.991 143.776 294.538C143.366 295.085 143.161 295.867 143.161 296.884ZM150.382 296.727C150.382 295.479 150.67 294.475 151.247 293.718C151.823 292.956 152.577 292.575 153.51 292.575C154.438 292.575 155.172 292.901 155.714 293.553V289.311H157.069V300.864H155.824L155.758 299.991C155.216 300.673 154.462 301.014 153.495 301.014C152.577 301.014 151.828 300.629 151.247 299.856C150.67 299.084 150.382 298.076 150.382 296.832V296.727ZM151.737 296.884C151.737 297.808 151.923 298.53 152.294 299.051C152.665 299.573 153.178 299.834 153.832 299.834C154.691 299.834 155.319 299.437 155.714 298.645V294.907C155.309 294.139 154.687 293.756 153.847 293.756C153.183 293.756 152.665 294.019 152.294 294.546C151.923 295.072 151.737 295.852 151.737 296.884Z" fill="black"/>
<path d="M98.9487 312.403V316.268H98.168V306.777H101.316C102.277 306.777 103.034 307.029 103.589 307.533C104.147 308.037 104.427 308.73 104.427 309.613C104.427 310.504 104.158 311.192 103.621 311.679C103.087 312.162 102.313 312.403 101.297 312.403H98.9487ZM98.9487 311.725H101.316C102.074 311.725 102.652 311.54 103.049 311.171C103.447 310.801 103.646 310.286 103.646 309.626C103.646 308.97 103.447 308.448 103.049 308.061C102.656 307.67 102.095 307.47 101.367 307.461H98.9487V311.725ZM108.572 316.399C107.988 316.399 107.459 316.251 106.985 315.955C106.515 315.66 106.149 315.25 105.887 314.724C105.624 314.193 105.493 313.6 105.493 312.944V312.664C105.493 311.986 105.62 311.375 105.874 310.832C106.132 310.288 106.49 309.862 106.947 309.554C107.404 309.241 107.899 309.085 108.432 309.085C109.266 309.085 109.926 309.378 110.413 309.965C110.903 310.547 111.149 311.344 111.149 312.357V312.794H106.248V312.944C106.248 313.743 106.471 314.411 106.915 314.945C107.364 315.476 107.926 315.74 108.604 315.74C109.01 315.74 109.367 315.664 109.676 315.513C109.989 315.361 110.273 315.117 110.527 314.782L111.003 315.154C110.444 315.984 109.634 316.399 108.572 316.399ZM108.432 309.749C107.861 309.749 107.378 309.965 106.985 310.395C106.596 310.825 106.359 311.404 106.274 312.129H110.394V312.044C110.372 311.367 110.184 310.814 109.829 310.388C109.473 309.963 109.008 309.749 108.432 309.749ZM115.802 309.88C115.641 309.85 115.47 309.834 115.288 309.834C114.814 309.834 114.412 309.971 114.081 310.245C113.756 310.514 113.523 310.908 113.383 311.425V316.268H112.628V309.215H113.371L113.383 310.337C113.785 309.502 114.431 309.085 115.319 309.085C115.531 309.085 115.698 309.112 115.821 309.169L115.802 309.88ZM121.121 314.475C121.121 314.089 120.969 313.778 120.664 313.544C120.364 313.309 119.909 313.126 119.299 312.995C118.69 312.861 118.216 312.709 117.877 312.539C117.543 312.366 117.294 312.155 117.128 311.907C116.968 311.659 116.887 311.359 116.887 311.007C116.887 310.452 117.114 309.993 117.566 309.632C118.019 309.268 118.599 309.085 119.306 309.085C120.072 309.085 120.685 309.28 121.146 309.671C121.612 310.058 121.845 310.565 121.845 311.19H121.083C121.083 310.777 120.914 310.434 120.575 310.16C120.241 309.887 119.818 309.749 119.306 309.749C118.806 309.749 118.404 309.864 118.1 310.095C117.799 310.321 117.649 310.617 117.649 310.982C117.649 311.334 117.774 311.607 118.023 311.803C118.277 311.994 118.737 312.17 119.401 312.331C120.07 312.492 120.569 312.664 120.899 312.845C121.233 313.028 121.481 313.248 121.642 313.505C121.802 313.76 121.883 314.072 121.883 314.436C121.883 315.032 121.648 315.507 121.178 315.864C120.713 316.22 120.103 316.399 119.35 316.399C118.55 316.399 117.901 316.201 117.401 315.805C116.906 315.406 116.659 314.901 116.659 314.293H117.42C117.45 314.749 117.636 315.106 117.979 315.363C118.326 315.614 118.783 315.74 119.35 315.74C119.879 315.74 120.307 315.62 120.632 315.382C120.958 315.143 121.121 314.841 121.121 314.475ZM123.178 312.637C123.178 311.959 123.305 311.349 123.559 310.806C123.817 310.263 124.178 309.841 124.644 309.541C125.114 309.237 125.645 309.085 126.237 309.085C127.151 309.085 127.892 309.414 128.459 310.076C129.026 310.732 129.31 311.603 129.31 312.689V312.853C129.31 313.535 129.181 314.15 128.922 314.697C128.668 315.24 128.309 315.66 127.843 315.955C127.378 316.251 126.847 316.399 126.25 316.399C125.34 316.399 124.6 316.07 124.028 315.414C123.461 314.754 123.178 313.881 123.178 312.794V312.637ZM123.939 312.853C123.939 313.696 124.151 314.389 124.574 314.932C125.002 315.47 125.56 315.74 126.25 315.74C126.936 315.74 127.49 315.47 127.913 314.932C128.34 314.389 128.554 313.674 128.554 312.787V312.637C128.554 312.099 128.457 311.605 128.262 311.157C128.068 310.71 127.795 310.364 127.443 310.121C127.092 309.873 126.69 309.749 126.237 309.749C125.56 309.749 125.008 310.023 124.581 310.571C124.153 311.114 123.939 311.827 123.939 312.709V312.853ZM131.607 309.215L131.633 310.421C131.891 309.986 132.213 309.656 132.598 309.43C132.983 309.2 133.408 309.085 133.874 309.085C134.61 309.085 135.158 309.297 135.518 309.724C135.877 310.15 136.059 310.788 136.063 311.64V316.268H135.308V311.634C135.304 311.003 135.173 310.534 134.915 310.226C134.661 309.917 134.252 309.763 133.689 309.763C133.22 309.763 132.803 309.915 132.439 310.219C132.079 310.518 131.813 310.925 131.639 311.438V316.268H130.884V309.215H131.607ZM142.367 316.268C142.291 316.047 142.242 315.719 142.221 315.285C141.954 315.641 141.613 315.916 141.199 316.112C140.788 316.303 140.352 316.399 139.891 316.399C139.231 316.399 138.696 316.21 138.285 315.832C137.879 315.454 137.676 314.975 137.676 314.397C137.676 313.711 137.953 313.168 138.507 312.767C139.066 312.368 139.842 312.168 140.837 312.168H142.214V311.367C142.214 310.862 142.062 310.467 141.757 310.18C141.457 309.889 141.017 309.743 140.437 309.743C139.908 309.743 139.47 309.882 139.123 310.16C138.776 310.438 138.603 310.773 138.603 311.164L137.841 311.157C137.841 310.597 138.095 310.113 138.603 309.704C139.11 309.291 139.735 309.085 140.475 309.085C141.241 309.085 141.844 309.282 142.284 309.678C142.729 310.069 142.957 310.617 142.97 311.32V314.658C142.97 315.341 143.04 315.851 143.179 316.19V316.268H142.367ZM139.98 315.708C140.488 315.708 140.941 315.581 141.338 315.33C141.74 315.077 142.032 314.741 142.214 314.319V312.767H140.856C140.098 312.777 139.506 312.919 139.079 313.198C138.651 313.472 138.438 313.85 138.438 314.333C138.438 314.728 138.579 315.055 138.863 315.316C139.151 315.577 139.523 315.708 139.98 315.708ZM145.852 316.268H145.09V306.255H145.852V316.268Z" fill="#444444"/>
<path d="M147.449 311.777C147.449 311.673 147.481 311.583 147.546 311.511C147.613 311.436 147.706 311.398 147.823 311.398C147.94 311.398 148.032 311.436 148.1 311.511C148.167 311.583 148.201 311.673 148.201 311.777C148.201 311.883 148.167 311.97 148.1 312.039C148.032 312.106 147.94 312.139 147.823 312.139C147.706 312.139 147.613 312.106 147.546 312.039C147.481 311.97 147.449 311.883 147.449 311.777ZM147.506 317.495L147.194 317.261C147.461 316.894 147.599 316.514 147.607 316.119V315.42H148.122V315.984C148.122 316.61 147.917 317.113 147.506 317.495Z" fill="#B0B0B0"/>
<path d="M76.5469 192.002H72.5566V203.303H70.3506V192.002H66.3955V190.161H76.5469V192.002ZM75.7998 198.329C75.7998 197.373 75.9844 196.513 76.3535 195.749C76.7227 194.978 77.2412 194.388 77.9092 193.979C78.5771 193.564 79.3447 193.356 80.2119 193.356C81.4951 193.356 82.5352 193.781 83.332 194.629C84.1348 195.478 84.5684 196.603 84.6328 198.005L84.6416 198.519C84.6416 199.482 84.46 200.342 84.0967 201.1C83.7393 201.859 83.2236 202.445 82.5498 202.86C81.8818 203.276 81.1084 203.484 80.2295 203.484C78.8877 203.484 77.8125 203.026 77.0039 202.112C76.2012 201.19 75.7998 199.966 75.7998 198.438V198.329ZM77.9355 198.519C77.9355 199.524 78.1377 200.312 78.542 200.884C78.9463 201.449 79.5088 201.733 80.2295 201.733C80.9502 201.733 81.5098 201.443 81.9082 200.866C82.3125 200.288 82.5146 199.443 82.5146 198.329C82.5146 197.342 82.3066 196.561 81.8906 195.983C81.4805 195.406 80.9209 195.116 80.2119 195.116C79.5146 195.116 78.9609 195.403 78.5508 195.974C78.1406 196.539 77.9355 197.388 77.9355 198.519ZM88.4561 193.537L88.5176 194.556C89.1855 193.756 90.0996 193.356 91.2598 193.356C92.5312 193.356 93.4014 193.856 93.8701 194.854C94.5615 193.856 95.5342 193.356 96.7881 193.356C97.8369 193.356 98.6162 193.654 99.126 194.25C99.6416 194.846 99.9053 195.724 99.917 196.885V203.303H97.7812V196.948C97.7812 196.329 97.6494 195.875 97.3857 195.585C97.1221 195.297 96.6855 195.152 96.0762 195.152C95.5898 195.152 95.1914 195.288 94.8809 195.559C94.5762 195.824 94.3623 196.173 94.2393 196.606L94.248 203.303H92.1123V196.876C92.083 195.727 91.5117 195.152 90.3984 195.152C89.543 195.152 88.9365 195.51 88.5791 196.226V203.303H86.4434V193.537H88.4561ZM104.118 193.537L104.18 194.556C104.848 193.756 105.762 193.356 106.922 193.356C108.193 193.356 109.064 193.856 109.532 194.854C110.224 193.856 111.196 193.356 112.45 193.356C113.499 193.356 114.278 193.654 114.788 194.25C115.304 194.846 115.567 195.724 115.579 196.885V203.303H113.443V196.948C113.443 196.329 113.312 195.875 113.048 195.585C112.784 195.297 112.348 195.152 111.738 195.152C111.252 195.152 110.854 195.288 110.543 195.559C110.238 195.824 110.024 196.173 109.901 196.606L109.91 203.303H107.774V196.876C107.745 195.727 107.174 195.152 106.061 195.152C105.205 195.152 104.599 195.51 104.241 196.226V203.303H102.106V193.537H104.118ZM117.372 198.329C117.372 197.373 117.557 196.513 117.926 195.749C118.295 194.978 118.814 194.388 119.481 193.979C120.149 193.564 120.917 193.356 121.784 193.356C123.067 193.356 124.107 193.781 124.904 194.629C125.707 195.478 126.141 196.603 126.205 198.005L126.214 198.519C126.214 199.482 126.032 200.342 125.669 201.1C125.312 201.859 124.796 202.445 124.122 202.86C123.454 203.276 122.681 203.484 121.802 203.484C120.46 203.484 119.385 203.026 118.576 202.112C117.773 201.19 117.372 199.966 117.372 198.438V198.329ZM119.508 198.519C119.508 199.524 119.71 200.312 120.114 200.884C120.519 201.449 121.081 201.733 121.802 201.733C122.523 201.733 123.082 201.443 123.481 200.866C123.885 200.288 124.087 199.443 124.087 198.329C124.087 197.342 123.879 196.561 123.463 195.983C123.053 195.406 122.493 195.116 121.784 195.116C121.087 195.116 120.533 195.403 120.123 195.974C119.713 196.539 119.508 197.388 119.508 198.519ZM132.999 195.54C132.718 195.493 132.428 195.468 132.129 195.468C131.15 195.468 130.491 195.853 130.151 196.624V203.303H128.016V193.537H130.055L130.107 194.629C130.623 193.781 131.338 193.356 132.252 193.356C132.557 193.356 132.809 193.398 133.008 193.483L132.999 195.54ZM133.632 198.329C133.632 197.373 133.816 196.513 134.186 195.749C134.555 194.978 135.073 194.388 135.741 193.979C136.409 193.564 137.177 193.356 138.044 193.356C139.327 193.356 140.367 193.781 141.164 194.629C141.967 195.478 142.4 196.603 142.465 198.005L142.474 198.519C142.474 199.482 142.292 200.342 141.929 201.1C141.571 201.859 141.056 202.445 140.382 202.86C139.714 203.276 138.94 203.484 138.062 203.484C136.72 203.484 135.645 203.026 134.836 202.112C134.033 201.19 133.632 199.966 133.632 198.438V198.329ZM135.768 198.519C135.768 199.524 135.97 200.312 136.374 200.884C136.778 201.449 137.341 201.733 138.062 201.733C138.782 201.733 139.342 201.443 139.74 200.866C140.145 200.288 140.347 199.443 140.347 198.329C140.347 197.342 140.139 196.561 139.723 195.983C139.312 195.406 138.753 195.116 138.044 195.116C137.347 195.116 136.793 195.403 136.383 195.974C135.973 196.539 135.768 197.388 135.768 198.519ZM152.634 200.28L154.146 193.537H156.229L153.636 203.303H151.878L149.839 196.597L147.835 203.303H146.077L143.476 193.537H145.559L147.097 200.207L149.048 193.537H150.656L152.634 200.28Z" fill="#222222"/>
<path d="M73 103.175C78.2467 103.175 82.5 98.8066 82.5 93.4184C82.5 88.0303 78.2467 83.6624 73 83.6624C67.7533 83.6624 63.5 88.0303 63.5 93.4184C63.5 98.8066 67.7533 103.175 73 103.175Z" fill="white" fill-opacity="0.85" stroke="#B0B0B0"/>
<path d="M99.0542 79.386L102.54 88.3218L106.027 79.386H107.851V90.3376H106.444V86.0729L106.576 81.4695L103.075 90.3376H101.998L98.5049 81.4921L98.644 86.0729V90.3376H97.2378V79.386H99.0542ZM112.714 88.2992L114.56 82.1992H116.01L112.824 91.5937C112.331 92.9476 111.547 93.6246 110.473 93.6246L110.216 93.602L109.711 93.5042V92.376L110.077 92.4061C110.536 92.4061 110.893 92.3108 111.146 92.1202C111.405 91.9297 111.618 91.5811 111.784 91.0748L112.084 90.2473L109.257 82.1992H110.736L112.714 88.2992ZM127.04 85.5011H122.565V90.3376H121.159V79.386H127.765V80.5745H122.565V84.3203H127.04V85.5011ZM130.709 90.3376H129.354V82.1992H130.709V90.3376ZM129.245 80.0404C129.245 79.8148 129.311 79.6243 129.442 79.4688C129.579 79.3133 129.779 79.2357 130.043 79.2357C130.307 79.2357 130.507 79.3133 130.644 79.4688C130.78 79.6243 130.849 79.8148 130.849 80.0404C130.849 80.2661 130.78 80.4542 130.644 80.6046C130.507 80.755 130.307 80.8302 130.043 80.8302C129.779 80.8302 129.579 80.755 129.442 80.6046C129.311 80.4542 129.245 80.2661 129.245 80.0404ZM136.715 83.4477C136.51 83.4126 136.288 83.3951 136.049 83.3951C135.16 83.3951 134.557 83.7838 134.24 84.561V90.3376H132.885V82.1992H134.203L134.225 83.1394C134.669 82.4123 135.299 82.0487 136.115 82.0487C136.378 82.0487 136.579 82.0838 136.715 82.154V83.4477ZM142.582 88.1788C142.582 87.8028 142.443 87.5119 142.165 87.3063C141.891 87.0958 141.41 86.9153 140.722 86.7648C140.038 86.6144 139.494 86.4338 139.088 86.2233C138.688 86.0127 138.39 85.7619 138.195 85.4711C138.004 85.1802 137.909 84.8342 137.909 84.4331C137.909 83.7662 138.183 83.2021 138.729 82.7407C139.281 82.2794 139.984 82.0487 140.839 82.0487C141.737 82.0487 142.465 82.2869 143.021 82.7633C143.583 83.2397 143.864 83.8489 143.864 84.5911H142.501C142.501 84.21 142.343 83.8815 142.025 83.6057C141.713 83.33 141.317 83.192 140.839 83.192C140.346 83.192 139.96 83.3023 139.682 83.523C139.403 83.7436 139.264 84.032 139.264 84.3879C139.264 84.7239 139.394 84.9772 139.652 85.1477C139.911 85.3181 140.377 85.4811 141.051 85.6366C141.73 85.792 142.279 85.9776 142.699 86.1932C143.119 86.4088 143.429 86.6695 143.629 86.9754C143.834 87.2762 143.937 87.6448 143.937 88.0811C143.937 88.8082 143.654 89.3924 143.087 89.8337C142.521 90.2699 141.786 90.4881 140.883 90.4881C140.248 90.4881 139.687 90.3727 139.198 90.1421C138.71 89.9114 138.327 89.5905 138.048 89.1793C137.775 88.7631 137.638 88.3143 137.638 87.8329H138.993C139.018 88.2992 139.198 88.6703 139.535 88.9461C139.877 89.2169 140.326 89.3522 140.883 89.3522C141.396 89.3522 141.806 89.247 142.113 89.0364C142.426 88.8207 142.582 88.5349 142.582 88.1788ZM147.541 80.2284V82.1992H149.02V83.2748H147.541V88.3218C147.541 88.6478 147.606 88.8935 147.738 89.0589C147.87 89.2194 148.095 89.2997 148.412 89.2997C148.568 89.2997 148.783 89.2696 149.057 89.2094V90.3376C148.7 90.4379 148.354 90.4881 148.017 90.4881C147.411 90.4881 146.955 90.3 146.647 89.9239C146.339 89.5479 146.186 89.0138 146.186 88.3218V83.2748H144.743V82.1992H146.186V80.2284H147.541ZM161.618 80.5745H158.19V90.3376H156.791V80.5745H153.371V79.386H161.618V80.5745ZM167.045 90.3376C166.967 90.1772 166.903 89.8913 166.854 89.4801C166.225 90.152 165.473 90.4881 164.599 90.4881C163.817 90.4881 163.175 90.2624 162.672 89.8111C162.174 89.3548 161.925 88.7781 161.925 88.0811C161.925 87.2336 162.238 86.5768 162.863 86.1104C163.493 85.6391 164.376 85.4034 165.514 85.4034H166.833V84.7641C166.833 84.2776 166.691 83.8915 166.408 83.6057C166.125 83.3149 165.707 83.1694 165.155 83.1694C164.672 83.1694 164.267 83.2948 163.939 83.5455C163.612 83.7963 163.449 84.0997 163.449 84.4557H162.086C162.086 84.0495 162.226 83.6584 162.504 83.2823C162.787 82.9012 163.168 82.6003 163.646 82.3797C164.13 82.159 164.66 82.0487 165.236 82.0487C166.149 82.0487 166.864 82.2844 167.382 82.7558C167.899 83.2221 168.168 83.8664 168.188 84.6888V88.4347C168.188 89.1818 168.28 89.776 168.466 90.2172V90.3376H167.045ZM164.796 89.2771C165.221 89.2771 165.624 89.1642 166.005 88.9386C166.386 88.713 166.662 88.4196 166.833 88.0586V86.3888H165.771C164.11 86.3888 163.28 86.8876 163.28 87.8855C163.28 88.3218 163.422 88.6627 163.705 88.9085C163.988 89.1542 164.352 89.2771 164.796 89.2771ZM174.926 88.1788C174.926 87.8028 174.787 87.5119 174.508 87.3063C174.235 87.0958 173.754 86.9153 173.065 86.7648C172.382 86.6144 171.837 86.4338 171.432 86.2233C171.032 86.0127 170.734 85.7619 170.539 85.4711C170.348 85.1802 170.253 84.8342 170.253 84.4331C170.253 83.7662 170.526 83.2021 171.073 82.7407C171.625 82.2794 172.328 82.0487 173.183 82.0487C174.081 82.0487 174.809 82.2869 175.365 82.7633C175.927 83.2397 176.208 83.8489 176.208 84.5911H174.845C174.845 84.21 174.687 83.8815 174.369 83.6057C174.057 83.33 173.661 83.192 173.183 83.192C172.689 83.192 172.304 83.3023 172.025 83.523C171.747 83.7436 171.608 84.032 171.608 84.3879C171.608 84.7239 171.737 84.9772 171.996 85.1477C172.255 85.3181 172.721 85.4811 173.395 85.6366C174.074 85.792 174.623 85.9776 175.043 86.1932C175.463 86.4088 175.773 86.6695 175.973 86.9754C176.178 87.2762 176.281 87.6448 176.281 88.0811C176.281 88.8082 175.998 89.3924 175.431 89.8337C174.865 90.2699 174.13 90.4881 173.227 90.4881C172.592 90.4881 172.03 90.3727 171.542 90.1421C171.054 89.9114 170.67 89.5905 170.392 89.1793C170.119 88.7631 169.982 88.3143 169.982 87.8329H171.337C171.361 88.2992 171.542 88.6703 171.879 88.9461C172.221 89.2169 172.67 89.3522 173.227 89.3522C173.739 89.3522 174.149 89.247 174.457 89.0364C174.77 88.8207 174.926 88.5349 174.926 88.1788ZM180.258 86.5693L179.408 87.4794V90.3376H178.053V78.7843H179.408V85.772L180.133 84.8769L182.602 82.1992H184.25L181.166 85.5989L184.608 90.3376H183.019L180.258 86.5693Z" fill="black"/>
<path d="M98.9487 101.876V105.742H98.168V96.2506H101.316C102.277 96.2506 103.034 96.5027 103.589 97.0068C104.147 97.5109 104.427 98.2041 104.427 99.0863C104.427 99.9772 104.158 100.666 103.621 101.153C103.087 101.635 102.313 101.876 101.297 101.876H98.9487ZM98.9487 101.198H101.316C102.074 101.198 102.652 101.014 103.049 100.644C103.447 100.275 103.646 99.7599 103.646 99.0993C103.646 98.4431 103.447 97.9216 103.049 97.5348C102.656 97.1437 102.095 96.9438 101.367 96.9351H98.9487V101.198ZM108.572 105.872C107.988 105.872 107.459 105.725 106.985 105.429C106.515 105.134 106.149 104.723 105.887 104.197C105.624 103.667 105.493 103.074 105.493 102.417V102.137C105.493 101.459 105.62 100.849 105.874 100.305C106.132 99.7621 106.49 99.3362 106.947 99.0276C107.404 98.7147 107.899 98.5583 108.432 98.5583C109.266 98.5583 109.926 98.8516 110.413 99.4383C110.903 100.021 111.149 100.818 111.149 101.831V102.267H106.248V102.417C106.248 103.217 106.471 103.884 106.915 104.419C107.364 104.949 107.926 105.214 108.604 105.214C109.01 105.214 109.367 105.138 109.676 104.986C109.989 104.834 110.273 104.59 110.527 104.256L111.003 104.627C110.444 105.457 109.634 105.872 108.572 105.872ZM108.432 99.2231C107.861 99.2231 107.378 99.4383 106.985 99.8686C106.596 100.299 106.359 100.877 106.274 101.603H110.394V101.518C110.372 100.84 110.184 100.288 109.829 99.862C109.473 99.4361 109.008 99.2231 108.432 99.2231ZM115.802 99.3536C115.641 99.3232 115.47 99.308 115.288 99.308C114.814 99.308 114.412 99.4449 114.081 99.7187C113.756 99.988 113.523 100.381 113.383 100.899V105.742H112.628V98.6886H113.371L113.383 99.8099C113.785 98.9754 114.431 98.5583 115.319 98.5583C115.531 98.5583 115.698 98.5865 115.821 98.643L115.802 99.3536ZM121.121 103.949C121.121 103.563 120.969 103.252 120.664 103.017C120.364 102.782 119.909 102.6 119.299 102.47C118.69 102.335 118.216 102.183 117.877 102.013C117.543 101.839 117.294 101.629 117.128 101.381C116.968 101.133 116.887 100.833 116.887 100.481C116.887 99.9251 117.114 99.4665 117.566 99.1059C118.019 98.7408 118.599 98.5583 119.306 98.5583C120.072 98.5583 120.685 98.7538 121.146 99.145C121.612 99.5318 121.845 100.038 121.845 100.664H121.083C121.083 100.251 120.914 99.9076 120.575 99.6338C120.241 99.36 119.818 99.2231 119.306 99.2231C118.806 99.2231 118.404 99.3384 118.1 99.5687C117.799 99.7947 117.649 100.09 117.649 100.455C117.649 100.807 117.774 101.081 118.023 101.277C118.277 101.468 118.737 101.644 119.401 101.805C120.07 101.965 120.569 102.137 120.899 102.32C121.233 102.502 121.481 102.722 121.642 102.978C121.802 103.234 121.883 103.545 121.883 103.91C121.883 104.506 121.648 104.981 121.178 105.338C120.713 105.694 120.103 105.872 119.35 105.872C118.55 105.872 117.901 105.675 117.401 105.279C116.906 104.879 116.659 104.375 116.659 103.767H117.42C117.45 104.223 117.636 104.579 117.979 104.836C118.326 105.088 118.783 105.214 119.35 105.214C119.879 105.214 120.307 105.094 120.632 104.855C120.958 104.616 121.121 104.314 121.121 103.949ZM123.178 102.111C123.178 101.433 123.305 100.822 123.559 100.279C123.817 99.736 124.178 99.3144 124.644 99.0146C125.114 98.7104 125.645 98.5583 126.237 98.5583C127.151 98.5583 127.892 98.8886 128.459 99.5491C129.026 100.205 129.31 101.077 129.31 102.163V102.326C129.31 103.008 129.181 103.623 128.922 104.171C128.668 104.714 128.309 105.134 127.843 105.429C127.378 105.725 126.847 105.872 126.25 105.872C125.34 105.872 124.6 105.544 124.028 104.888C123.461 104.227 123.178 103.354 123.178 102.267V102.111ZM123.939 102.326C123.939 103.169 124.151 103.862 124.574 104.406C125.002 104.945 125.56 105.214 126.25 105.214C126.936 105.214 127.49 104.945 127.913 104.406C128.34 103.862 128.554 103.147 128.554 102.261V102.111C128.554 101.572 128.457 101.079 128.262 100.631C128.068 100.184 127.795 99.8381 127.443 99.5948C127.092 99.347 126.69 99.2231 126.237 99.2231C125.56 99.2231 125.008 99.4969 124.581 100.045C124.153 100.588 123.939 101.3 123.939 102.183V102.326ZM131.607 98.6886L131.633 99.8947C131.891 99.4601 132.213 99.1298 132.598 98.9038C132.983 98.6734 133.408 98.5583 133.874 98.5583C134.61 98.5583 135.158 98.7712 135.518 99.1972C135.877 99.623 136.059 100.262 136.063 101.114V105.742H135.308V101.107C135.304 100.477 135.173 100.008 134.915 99.699C134.661 99.3905 134.252 99.2362 133.689 99.2362C133.22 99.2362 132.803 99.3884 132.439 99.6926C132.079 99.9924 131.813 100.399 131.639 100.912V105.742H130.884V98.6886H131.607ZM142.367 105.742C142.291 105.52 142.242 105.192 142.221 104.758C141.954 105.114 141.613 105.39 141.199 105.586C140.788 105.777 140.352 105.872 139.891 105.872C139.231 105.872 138.696 105.683 138.285 105.305C137.879 104.927 137.676 104.449 137.676 103.871C137.676 103.184 137.953 102.641 138.507 102.241C139.066 101.842 139.842 101.642 140.837 101.642H142.214V100.84C142.214 100.336 142.062 99.9403 141.757 99.6534C141.457 99.3623 141.017 99.2167 140.437 99.2167C139.908 99.2167 139.47 99.3557 139.123 99.6338C138.776 99.912 138.603 100.247 138.603 100.638L137.841 100.631C137.841 100.071 138.095 99.5861 138.603 99.1776C139.11 98.7647 139.735 98.5583 140.475 98.5583C141.241 98.5583 141.844 98.756 142.284 99.1515C142.729 99.5426 142.957 100.09 142.97 100.794V104.132C142.97 104.814 143.04 105.325 143.179 105.664V105.742H142.367ZM139.98 105.181C140.488 105.181 140.941 105.055 141.338 104.803C141.74 104.551 142.032 104.214 142.214 103.793V102.241H140.856C140.098 102.25 139.506 102.393 139.079 102.672C138.651 102.945 138.438 103.323 138.438 103.806C138.438 104.201 138.579 104.529 138.863 104.79C139.151 105.051 139.523 105.181 139.98 105.181ZM145.852 105.742H145.09V95.7291H145.852V105.742Z" fill="#444444"/>
<path d="M147.449 101.251C147.449 101.146 147.481 101.057 147.546 100.985C147.613 100.91 147.706 100.872 147.823 100.872C147.94 100.872 148.032 100.91 148.1 100.985C148.167 101.057 148.201 101.146 148.201 101.251C148.201 101.357 148.167 101.444 148.1 101.513C148.032 101.579 147.94 101.613 147.823 101.613C147.706 101.613 147.613 101.579 147.546 101.513C147.481 101.444 147.449 101.357 147.449 101.251ZM147.506 106.969L147.194 106.735C147.461 106.368 147.599 105.987 147.607 105.593V104.893H148.122V105.458C148.122 106.083 147.917 106.587 147.506 106.969Z" fill="#B0B0B0"/>
<path d="M73 157.603C78.2467 157.603 82.5 153.235 82.5 147.847C82.5 142.459 78.2467 138.091 73 138.091C67.7533 138.091 63.5 142.459 63.5 147.847C63.5 153.235 67.7533 157.603 73 157.603Z" fill="white" fill-opacity="0.85" stroke="#B0B0B0"/>
<path d="M105.082 141.291C104.95 142.45 104.533 143.345 103.83 143.977C103.131 144.603 102.201 144.916 101.039 144.916C99.7793 144.916 98.7686 144.453 98.0068 143.526C97.25 142.597 96.8716 141.357 96.8716 139.802V138.749C96.8716 137.731 97.0474 136.836 97.3989 136.064C97.7554 135.292 98.2583 134.7 98.9077 134.288C99.5571 133.872 100.309 133.664 101.164 133.664C102.296 133.664 103.205 133.99 103.888 134.643C104.572 135.289 104.97 136.187 105.082 137.335H103.668C103.546 136.462 103.28 135.831 102.87 135.44C102.465 135.048 101.896 134.853 101.164 134.853C100.265 134.853 99.5596 135.194 99.0469 135.876C98.5391 136.558 98.2852 137.528 98.2852 138.786V139.847C98.2852 141.035 98.5269 141.981 99.0103 142.683C99.4937 143.385 100.17 143.736 101.039 143.736C101.82 143.736 102.418 143.556 102.833 143.194C103.253 142.828 103.532 142.194 103.668 141.291H105.082ZM106.437 140.622C106.437 139.825 106.588 139.108 106.891 138.471C107.199 137.834 107.623 137.342 108.165 136.996C108.712 136.65 109.335 136.478 110.033 136.478C111.112 136.478 111.984 136.861 112.648 137.628C113.317 138.395 113.651 139.416 113.651 140.689V140.787C113.651 141.58 113.502 142.291 113.205 142.924C112.912 143.55 112.489 144.039 111.937 144.39C111.391 144.742 110.761 144.916 110.048 144.916C108.974 144.916 108.102 144.533 107.433 143.766C106.769 142.999 106.437 141.983 106.437 140.72V140.622ZM107.799 140.787C107.799 141.69 108.002 142.415 108.407 142.961C108.817 143.507 109.364 143.781 110.048 143.781C110.736 143.781 111.283 143.505 111.688 142.954C112.094 142.397 112.296 141.62 112.296 140.622C112.296 139.729 112.089 139.007 111.674 138.456C111.264 137.899 110.717 137.621 110.033 137.621C109.364 137.621 108.825 137.894 108.415 138.44C108.004 138.988 107.799 139.769 107.799 140.787ZM114.992 140.622C114.992 139.825 115.143 139.108 115.446 138.471C115.753 137.834 116.178 137.342 116.72 136.996C117.267 136.65 117.89 136.478 118.588 136.478C119.667 136.478 120.539 136.861 121.203 137.628C121.872 138.395 122.206 139.416 122.206 140.689V140.787C122.206 141.58 122.057 142.291 121.759 142.924C121.466 143.55 121.044 144.039 120.492 144.39C119.945 144.742 119.315 144.916 118.602 144.916C117.528 144.916 116.657 144.533 115.988 143.766C115.324 142.999 114.992 141.983 114.992 140.72V140.622ZM116.354 140.787C116.354 141.69 116.557 142.415 116.962 142.961C117.372 143.507 117.919 143.781 118.602 143.781C119.291 143.781 119.838 143.505 120.243 142.954C120.648 142.397 120.851 141.62 120.851 140.622C120.851 139.729 120.644 139.007 120.228 138.456C119.818 137.899 119.271 137.621 118.588 137.621C117.919 137.621 117.379 137.894 116.969 138.44C116.559 138.988 116.354 139.769 116.354 140.787ZM126.117 140.998L125.268 141.908V144.766H123.913V133.213H125.268V140.2L125.993 139.306L128.461 136.628H130.109L127.025 140.028L130.468 144.766H128.878L126.117 140.998ZM132.98 144.766H131.625V136.628H132.98V144.766ZM131.515 134.469C131.515 134.243 131.581 134.053 131.713 133.898C131.85 133.742 132.05 133.664 132.313 133.664C132.577 133.664 132.777 133.742 132.914 133.898C133.051 134.053 133.119 134.243 133.119 134.469C133.119 134.695 133.051 134.883 132.914 135.033C132.777 135.184 132.577 135.259 132.313 135.259C132.05 135.259 131.85 135.184 131.713 135.033C131.581 134.883 131.515 134.695 131.515 134.469ZM136.437 136.628L136.481 137.651C137.086 136.869 137.877 136.478 138.854 136.478C140.529 136.478 141.374 137.448 141.388 139.388V144.766H140.033V139.381C140.028 138.795 139.896 138.36 139.638 138.08C139.384 137.798 138.986 137.659 138.444 137.659C138.004 137.659 137.619 137.779 137.287 138.019C136.955 138.261 136.696 138.576 136.51 138.967V144.766H135.155V136.628H136.437ZM143.109 140.63C143.109 139.36 143.395 138.353 143.966 137.605C144.538 136.854 145.294 136.478 146.237 136.478C147.204 136.478 147.958 136.829 148.5 137.53L148.566 136.628H149.804V144.571C149.804 145.624 149.499 146.454 148.888 147.061C148.283 147.667 147.467 147.97 146.442 147.97C145.871 147.97 145.312 147.845 144.765 147.595C144.218 147.344 143.8 147 143.512 146.564L144.215 145.73C144.796 146.466 145.507 146.835 146.347 146.835C147.006 146.835 147.519 146.645 147.885 146.264C148.256 145.882 148.441 145.346 148.441 144.653V143.954C147.899 144.596 147.16 144.916 146.222 144.916C145.294 144.916 144.542 144.533 143.966 143.766C143.395 142.999 143.109 141.954 143.109 140.63ZM144.472 140.787C144.472 141.705 144.655 142.427 145.021 142.954C145.387 143.475 145.9 143.736 146.559 143.736C147.414 143.736 148.041 143.337 148.441 142.54V138.824C148.026 138.047 147.404 137.659 146.574 137.659C145.915 137.659 145.399 137.922 145.028 138.448C144.657 138.974 144.472 139.755 144.472 140.787Z" fill="black"/>
<path d="M105.017 160.171H104.23V155.62H98.9487V160.171H98.168V150.68H98.9487V154.942H104.23V150.68H105.017V160.171ZM106.775 156.539C106.775 155.862 106.902 155.252 107.156 154.708C107.414 154.165 107.776 153.743 108.242 153.443C108.711 153.139 109.242 152.987 109.835 152.987C110.749 152.987 111.49 153.317 112.057 153.978C112.624 154.634 112.907 155.505 112.907 156.592V156.755C112.907 157.437 112.778 158.052 112.52 158.599C112.266 159.143 111.906 159.563 111.441 159.858C110.975 160.153 110.444 160.301 109.848 160.301C108.938 160.301 108.197 159.973 107.626 159.316C107.059 158.656 106.775 157.783 106.775 156.697V156.539ZM107.537 156.755C107.537 157.598 107.749 158.291 108.172 158.835C108.599 159.373 109.158 159.643 109.848 159.643C110.533 159.643 111.088 159.373 111.511 158.835C111.938 158.291 112.152 157.577 112.152 156.689V156.539C112.152 156.001 112.055 155.507 111.86 155.06C111.665 154.613 111.392 154.267 111.041 154.023C110.69 153.776 110.288 153.652 109.835 153.652C109.158 153.652 108.606 153.926 108.178 154.473C107.751 155.016 107.537 155.729 107.537 156.611V156.755ZM115.173 153.118L115.199 154.265C115.453 153.838 115.77 153.519 116.151 153.307C116.532 153.094 116.955 152.987 117.42 152.987C118.504 152.987 119.191 153.443 119.483 154.356C119.729 153.917 120.057 153.581 120.467 153.346C120.878 153.106 121.331 152.987 121.826 152.987C123.298 152.987 124.05 153.813 124.079 155.464V160.171H123.317V155.523C123.313 154.893 123.18 154.426 122.918 154.121C122.659 153.817 122.236 153.665 121.648 153.665C121.102 153.674 120.641 153.856 120.264 154.212C119.887 154.565 119.678 154.995 119.636 155.503V160.171H118.874V155.464C118.87 154.86 118.73 154.411 118.455 154.115C118.184 153.815 117.765 153.665 117.198 153.665C116.72 153.665 116.31 153.807 115.967 154.089C115.624 154.366 115.37 154.782 115.205 155.334V160.171H114.443V153.118H115.173ZM128.668 160.301C128.084 160.301 127.556 160.153 127.082 159.858C126.612 159.563 126.246 159.152 125.983 158.626C125.721 158.095 125.59 157.503 125.59 156.846V156.566C125.59 155.888 125.717 155.277 125.971 154.734C126.229 154.191 126.586 153.765 127.043 153.456C127.5 153.143 127.996 152.987 128.529 152.987C129.362 152.987 130.023 153.281 130.509 153.867C131 154.45 131.246 155.246 131.246 156.259V156.697H126.345V156.846C126.345 157.645 126.567 158.313 127.012 158.847C127.46 159.378 128.023 159.643 128.7 159.643C129.106 159.643 129.464 159.567 129.773 159.415C130.086 159.263 130.37 159.019 130.624 158.685L131.1 159.056C130.541 159.886 129.731 160.301 128.668 160.301ZM128.529 153.652C127.958 153.652 127.475 153.867 127.082 154.298C126.692 154.728 126.455 155.306 126.371 156.031H130.49V155.947C130.469 155.269 130.281 154.717 129.925 154.29C129.57 153.865 129.104 153.652 128.529 153.652Z" fill="#444444"/>
<path d="M132.253 155.68C132.253 155.575 132.285 155.486 132.35 155.414C132.417 155.339 132.509 155.301 132.626 155.301C132.744 155.301 132.836 155.339 132.903 155.414C132.971 155.486 133.004 155.575 133.004 155.68C133.004 155.786 132.971 155.873 132.903 155.942C132.836 156.008 132.744 156.041 132.626 156.041C132.509 156.041 132.417 156.008 132.35 155.942C132.285 155.873 132.253 155.786 132.253 155.68ZM132.31 161.398L131.998 161.164C132.265 160.796 132.402 160.416 132.411 160.022V159.322H132.925V159.886C132.925 160.513 132.72 161.016 132.31 161.398Z" fill="#B0B0B0"/>
<path d="M73.5469 35.9048H69.5566V47.2054H67.3506V35.9048H63.3955V34.0635H73.5469V35.9048ZM72.7998 42.232C72.7998 41.2753 72.9844 40.4148 73.3535 39.6507C73.7227 38.8805 74.2412 38.2907 74.9092 37.8815C75.5771 37.4663 76.3447 37.2588 77.2119 37.2588C78.4951 37.2588 79.5352 37.6829 80.332 38.5314C81.1348 39.3799 81.5684 40.5051 81.6328 41.9071L81.6416 42.4216C81.6416 43.3844 81.46 44.2449 81.0967 45.0031C80.7393 45.7613 80.2236 46.3479 79.5498 46.7631C78.8818 47.1783 78.1084 47.3859 77.2295 47.3859C75.8877 47.3859 74.8125 46.9286 74.0039 46.0139C73.2012 45.0933 72.7998 43.8688 72.7998 42.3404V42.232ZM74.9355 42.4216C74.9355 43.4265 75.1377 44.2148 75.542 44.7864C75.9463 45.352 76.5088 45.6349 77.2295 45.6349C77.9502 45.6349 78.5098 45.3461 78.9082 44.7684C79.3125 44.1908 79.5146 43.3453 79.5146 42.232C79.5146 41.2452 79.3066 40.463 78.8906 39.8853C78.4805 39.3077 77.9209 39.0188 77.2119 39.0188C76.5146 39.0188 75.9609 39.3046 75.5508 39.8763C75.1406 40.4419 74.9355 41.2903 74.9355 42.4216ZM83.0479 42.2501C83.0479 40.7458 83.3877 39.5394 84.0674 38.6307C84.7471 37.7161 85.6582 37.2588 86.8008 37.2588C87.8086 37.2588 88.623 37.6198 89.2441 38.3418V33.3415H91.3799V47.2054H89.4463L89.3408 46.1945C88.7021 46.9888 87.8496 47.3859 86.7832 47.3859C85.6699 47.3859 84.7676 46.9255 84.0762 46.005C83.3906 45.0843 83.0479 43.8327 83.0479 42.2501ZM85.1836 42.4397C85.1836 43.4326 85.3682 44.2087 85.7373 44.7684C86.1123 45.3219 86.6426 45.5987 87.3281 45.5987C88.2012 45.5987 88.8398 45.1986 89.2441 44.3983V40.2283C88.8516 39.446 88.2188 39.0549 87.3457 39.0549C86.6543 39.0549 86.1211 39.3378 85.7461 39.9033C85.3711 40.463 85.1836 41.3084 85.1836 42.4397ZM99.29 47.2054C99.1963 47.0189 99.1143 46.715 99.0439 46.2938C98.3643 47.0219 97.5322 47.3859 96.5479 47.3859C95.5928 47.3859 94.8135 47.1061 94.21 46.5465C93.6064 45.9869 93.3047 45.2948 93.3047 44.4705C93.3047 43.4295 93.6797 42.6322 94.4297 42.0786C95.1855 41.519 96.2637 41.2392 97.6641 41.2392H98.9736V40.5984C98.9736 40.0929 98.8359 39.6897 98.5605 39.3889C98.2852 39.0819 97.8662 38.9285 97.3037 38.9285C96.8174 38.9285 96.4189 39.0549 96.1084 39.3077C95.7979 39.5543 95.6426 39.8702 95.6426 40.2554H93.5068C93.5068 39.7198 93.6797 39.2204 94.0254 38.757C94.3711 38.2877 94.8398 37.9207 95.4316 37.6559C96.0293 37.3912 96.6943 37.2588 97.4268 37.2588C98.54 37.2588 99.4277 37.5476 100.09 38.1252C100.752 38.6968 101.092 39.5032 101.109 40.5442V44.9489C101.109 45.8274 101.23 46.5284 101.47 47.052V47.2054H99.29ZM96.9434 45.6258C97.3652 45.6258 97.7607 45.5206 98.1299 45.3099C98.5049 45.0993 98.7861 44.8165 98.9736 44.4615V42.6202H97.8223C97.0312 42.6202 96.4365 42.7616 96.0381 43.0444C95.6396 43.3272 95.4404 43.7274 95.4404 44.2449C95.4404 44.666 95.5752 45.0031 95.8447 45.2558C96.1201 45.5025 96.4863 45.6258 96.9434 45.6258ZM106.532 44.0643L108.466 37.4392H110.742L106.963 48.6856C106.383 50.3284 105.398 51.1497 104.01 51.1497C103.699 51.1497 103.356 51.0956 102.981 50.9873V49.2904L103.386 49.3174C103.925 49.3174 104.329 49.2151 104.599 49.0106C104.874 48.8121 105.091 48.475 105.249 47.9996L105.557 47.1603L102.217 37.4392H104.52L106.532 44.0643Z" fill="#222222"/>
<g filter="url(#filter1_d)">
<path d="M34 538.091H455V581.223C455 586.328 450.971 590.466 446 590.466H43C38.0294 590.466 34 586.328 34 581.223V538.091Z" fill="white" fill-opacity="0.85"/>
</g>
<path d="M421.5 551.442C419.028 551.442 416.611 552.194 414.555 553.605C412.5 555.015 410.898 557.02 409.952 559.366C409.005 561.712 408.758 564.293 409.24 566.783C409.723 569.273 410.913 571.561 412.661 573.356C414.409 575.151 416.637 576.373 419.061 576.869C421.486 577.364 423.999 577.11 426.284 576.138C428.568 575.166 430.52 573.521 431.893 571.411C433.267 569.299 434 566.817 434 564.279C434 562.592 433.677 560.923 433.048 559.366C432.42 557.809 431.5 556.394 430.339 555.201C429.178 554.009 427.8 553.064 426.284 552.419C424.767 551.773 423.142 551.442 421.5 551.442ZM421.5 574.548C419.522 574.548 417.589 573.946 415.944 572.818C414.3 571.689 413.018 570.085 412.261 568.209C411.504 566.332 411.306 564.267 411.692 562.275C412.078 560.283 413.03 558.453 414.429 557.017C415.827 555.58 417.609 554.603 419.549 554.206C421.489 553.81 423.5 554.013 425.327 554.79C427.154 555.568 428.716 556.884 429.815 558.573C430.914 560.262 431.5 562.247 431.5 564.279C431.5 567.002 430.446 569.615 428.571 571.54C426.696 573.466 424.152 574.548 421.5 574.548ZM426.5 562.995H422.75V559.144C422.75 558.803 422.618 558.477 422.384 558.236C422.149 557.996 421.832 557.86 421.5 557.86C421.168 557.86 420.851 557.996 420.616 558.236C420.382 558.477 420.25 558.803 420.25 559.144V562.995H416.5C416.168 562.995 415.851 563.13 415.616 563.371C415.382 563.612 415.25 563.938 415.25 564.279C415.25 564.62 415.382 564.945 415.616 565.186C415.851 565.427 416.168 565.562 416.5 565.562H420.25V569.413C420.25 569.754 420.382 570.08 420.616 570.321C420.851 570.561 421.168 570.697 421.5 570.697C421.832 570.697 422.149 570.561 422.384 570.321C422.618 570.08 422.75 569.754 422.75 569.413V565.562H426.5C426.832 565.562 427.149 565.427 427.384 565.186C427.618 564.945 427.75 564.62 427.75 564.279C427.75 563.938 427.618 563.612 427.384 563.371C427.149 563.13 426.832 562.995 426.5 562.995Z" fill="#888888"/>
<path d="M378 551.955H79C72.0964 551.955 66.5 557.702 66.5 564.792C66.5 571.882 72.0964 577.629 79 577.629H378C384.904 577.629 390.5 571.882 390.5 564.792C390.5 557.702 384.904 551.955 378 551.955Z" fill="white" fill-opacity="0.85" stroke="#888888"/>
<path d="M87.3633 568.111C87.75 568.111 88.0879 567.991 88.377 567.751C88.666 567.509 88.8262 567.209 88.8574 566.848H89.8828C89.8633 567.221 89.7383 567.576 89.5078 567.913C89.2773 568.25 88.9688 568.519 88.582 568.719C88.1992 568.92 87.793 569.02 87.3633 569.02C86.5 569.02 85.8125 568.725 85.3008 568.136C84.793 567.542 84.5391 566.732 84.5391 565.705V565.518C84.5391 564.884 84.6523 564.321 84.8789 563.828C85.1055 563.334 85.4297 562.951 85.8516 562.677C86.2773 562.405 86.7793 562.269 87.3574 562.269C88.0684 562.269 88.6582 562.488 89.127 562.925C89.5996 563.361 89.8516 563.929 89.8828 564.628H88.8574C88.8262 564.207 88.6699 563.862 88.3887 563.593C88.1113 563.319 87.7676 563.184 87.3574 563.184C86.8066 563.184 86.3789 563.388 86.0742 563.797C85.7734 564.203 85.623 564.79 85.623 565.56V565.771C85.623 566.521 85.7734 567.099 86.0742 567.504C86.375 567.909 86.8047 568.111 87.3633 568.111ZM92.2793 568.9H91.1953V559.657H92.2793V568.9ZM95.1973 568.9H94.1133V562.389H95.1973V568.9ZM94.0254 560.663C94.0254 560.482 94.0781 560.329 94.1836 560.205C94.293 560.08 94.4531 560.019 94.6641 560.019C94.875 560.019 95.0352 560.08 95.1445 560.205C95.2539 560.329 95.3086 560.482 95.3086 560.663C95.3086 560.842 95.2539 560.993 95.1445 561.113C95.0352 561.234 94.875 561.294 94.6641 561.294C94.4531 561.294 94.293 561.234 94.1836 561.113C94.0781 560.993 94.0254 560.842 94.0254 560.663ZM99.4805 568.111C99.8672 568.111 100.205 567.991 100.494 567.751C100.783 567.509 100.943 567.209 100.975 566.848H102C101.98 567.221 101.855 567.576 101.625 567.913C101.394 568.25 101.086 568.519 100.699 568.719C100.316 568.92 99.9102 569.02 99.4805 569.02C98.6172 569.02 97.9297 568.725 97.418 568.136C96.9102 567.542 96.6562 566.732 96.6562 565.705V565.518C96.6562 564.884 96.7695 564.321 96.9961 563.828C97.2227 563.334 97.5469 562.951 97.9688 562.677C98.3945 562.405 98.8965 562.269 99.4746 562.269C100.185 562.269 100.775 562.488 101.244 562.925C101.717 563.361 101.969 563.929 102 564.628H100.975C100.943 564.207 100.787 563.862 100.506 563.593C100.228 563.319 99.8848 563.184 99.4746 563.184C98.9238 563.184 98.4961 563.388 98.1914 563.797C97.8906 564.203 97.7402 564.79 97.7402 565.56V565.771C97.7402 566.521 97.8906 567.099 98.1914 567.504C98.4922 567.909 98.9219 568.111 99.4805 568.111ZM104.988 565.885L104.309 566.613V568.9H103.225V559.657H104.309V565.247L104.889 564.531L106.863 562.389H108.182L105.715 565.109L108.469 568.9H107.197L104.988 565.885ZM113.297 562.389L113.326 563.111C113.791 562.549 114.418 562.269 115.207 562.269C116.094 562.269 116.697 562.618 117.018 563.315C117.228 563.003 117.502 562.75 117.838 562.557C118.178 562.365 118.578 562.269 119.039 562.269C120.43 562.269 121.137 563.025 121.16 564.537V568.9H120.076V564.603C120.076 564.138 119.973 563.791 119.766 563.563C119.559 563.33 119.211 563.214 118.723 563.214C118.32 563.214 117.986 563.338 117.721 563.586C117.455 563.831 117.301 564.163 117.258 564.579V568.9H116.168V564.634C116.168 563.687 115.717 563.214 114.814 563.214C114.103 563.214 113.617 563.525 113.355 564.146V568.9H112.271V562.389H113.297ZM125.432 569.02C124.572 569.02 123.873 568.731 123.334 568.153C122.795 567.572 122.525 566.796 122.525 565.825V565.621C122.525 564.975 122.644 564.399 122.883 563.893C123.125 563.384 123.461 562.987 123.891 562.702C124.324 562.414 124.793 562.269 125.297 562.269C126.121 562.269 126.762 562.547 127.219 563.105C127.676 563.662 127.904 564.461 127.904 565.5V565.964H123.609C123.625 566.606 123.807 567.124 124.154 567.522C124.506 567.915 124.951 568.111 125.49 568.111C125.873 568.111 126.197 568.031 126.463 567.871C126.729 567.711 126.961 567.498 127.16 567.233L127.822 567.763C127.291 568.601 126.494 569.02 125.432 569.02ZM125.297 563.184C124.859 563.184 124.492 563.348 124.195 563.677C123.898 564.001 123.715 564.459 123.644 565.049H126.82V564.965C126.789 564.399 126.641 563.961 126.375 563.653C126.109 563.34 125.75 563.184 125.297 563.184ZM133.611 560.813V562.389H134.795V563.25H133.611V567.288C133.611 567.548 133.664 567.745 133.77 567.877C133.875 568.005 134.055 568.069 134.309 568.069C134.434 568.069 134.605 568.045 134.824 567.997V568.9C134.539 568.98 134.262 569.02 133.992 569.02C133.508 569.02 133.143 568.87 132.896 568.569C132.65 568.268 132.527 567.841 132.527 567.288V563.25H131.373V562.389H132.527V560.813H133.611ZM135.662 565.584C135.662 564.946 135.783 564.373 136.025 563.864C136.271 563.354 136.611 562.961 137.045 562.684C137.482 562.407 137.98 562.269 138.539 562.269C139.402 562.269 140.1 562.576 140.631 563.189C141.166 563.803 141.434 564.619 141.434 565.638V565.716C141.434 566.351 141.314 566.92 141.076 567.425C140.842 567.927 140.504 568.319 140.062 568.599C139.625 568.879 139.121 569.02 138.551 569.02C137.691 569.02 136.994 568.713 136.459 568.1C135.928 567.486 135.662 566.673 135.662 565.663V565.584ZM136.752 565.716C136.752 566.439 136.914 567.018 137.238 567.456C137.566 567.893 138.004 568.111 138.551 568.111C139.102 568.111 139.539 567.891 139.863 567.45C140.188 567.004 140.35 566.383 140.35 565.584C140.35 564.87 140.184 564.293 139.852 563.851C139.523 563.406 139.086 563.184 138.539 563.184C138.004 563.184 137.572 563.402 137.244 563.839C136.916 564.277 136.752 564.902 136.752 565.716ZM149.684 568.9C149.621 568.771 149.57 568.542 149.531 568.214C149.027 568.751 148.426 569.02 147.727 569.02C147.102 569.02 146.588 568.839 146.186 568.479C145.787 568.113 145.588 567.652 145.588 567.094C145.588 566.417 145.838 565.891 146.338 565.518C146.842 565.141 147.549 564.952 148.459 564.952H149.514V564.441C149.514 564.052 149.4 563.743 149.174 563.514C148.947 563.281 148.613 563.165 148.172 563.165C147.785 563.165 147.461 563.266 147.199 563.466C146.938 563.666 146.807 563.91 146.807 564.194H145.717C145.717 563.87 145.828 563.557 146.051 563.256C146.277 562.951 146.582 562.71 146.965 562.534C147.352 562.357 147.775 562.269 148.236 562.269C148.967 562.269 149.539 562.458 149.953 562.835C150.367 563.207 150.582 563.723 150.598 564.381V567.378C150.598 567.976 150.672 568.45 150.82 568.803V568.9H149.684ZM147.885 568.052C148.225 568.052 148.547 567.961 148.852 567.78C149.156 567.6 149.377 567.366 149.514 567.077V565.741H148.664C147.336 565.741 146.672 566.139 146.672 566.938C146.672 567.288 146.785 567.56 147.012 567.757C147.238 567.953 147.529 568.052 147.885 568.052ZM152.033 565.59C152.033 564.592 152.264 563.789 152.725 563.184C153.186 562.574 153.789 562.269 154.535 562.269C155.277 562.269 155.865 562.53 156.299 563.051V559.657H157.383V568.9H156.387L156.334 568.202C155.9 568.748 155.297 569.02 154.523 569.02C153.789 569.02 153.189 568.711 152.725 568.094C152.264 567.475 152.033 566.669 152.033 565.674V565.59ZM153.117 565.716C153.117 566.455 153.266 567.033 153.562 567.45C153.859 567.867 154.27 568.075 154.793 568.075C155.48 568.075 155.982 567.759 156.299 567.124V564.134C155.975 563.521 155.477 563.214 154.805 563.214C154.273 563.214 153.859 563.424 153.562 563.845C153.266 564.266 153.117 564.891 153.117 565.716ZM158.807 565.59C158.807 564.592 159.037 563.789 159.498 563.184C159.959 562.574 160.562 562.269 161.309 562.269C162.051 562.269 162.639 562.53 163.072 563.051V559.657H164.156V568.9H163.16L163.107 568.202C162.674 568.748 162.07 569.02 161.297 569.02C160.562 569.02 159.963 568.711 159.498 568.094C159.037 567.475 158.807 566.669 158.807 565.674V565.59ZM159.891 565.716C159.891 566.455 160.039 567.033 160.336 567.45C160.633 567.867 161.043 568.075 161.566 568.075C162.254 568.075 162.756 567.759 163.072 567.124V564.134C162.748 563.521 162.25 563.214 161.578 563.214C161.047 563.214 160.633 563.424 160.336 563.845C160.039 564.266 159.891 564.891 159.891 565.716ZM169.846 562.389L169.881 563.207C170.365 562.582 170.998 562.269 171.779 562.269C173.119 562.269 173.795 563.045 173.807 564.598V568.9H172.723V564.592C172.719 564.122 172.613 563.775 172.406 563.55C172.203 563.326 171.885 563.214 171.451 563.214C171.1 563.214 170.791 563.31 170.525 563.502C170.26 563.695 170.053 563.948 169.904 564.26V568.9H168.82V562.389H169.846ZM178.072 569.02C177.213 569.02 176.514 568.731 175.975 568.153C175.436 567.572 175.166 566.796 175.166 565.825V565.621C175.166 564.975 175.285 564.399 175.523 563.893C175.766 563.384 176.102 562.987 176.531 562.702C176.965 562.414 177.434 562.269 177.938 562.269C178.762 562.269 179.402 562.547 179.859 563.105C180.316 563.662 180.545 564.461 180.545 565.5V565.964H176.25C176.266 566.606 176.447 567.124 176.795 567.522C177.146 567.915 177.592 568.111 178.131 568.111C178.514 568.111 178.838 568.031 179.104 567.871C179.369 567.711 179.602 567.498 179.801 567.233L180.463 567.763C179.932 568.601 179.135 569.02 178.072 569.02ZM177.938 563.184C177.5 563.184 177.133 563.348 176.836 563.677C176.539 564.001 176.355 564.459 176.285 565.049H179.461V564.965C179.43 564.399 179.281 563.961 179.016 563.653C178.75 563.34 178.391 563.184 177.938 563.184ZM187.418 567.366L188.637 562.389H189.721L187.875 568.9H186.996L185.455 563.965L183.955 568.9H183.076L181.236 562.389H182.314L183.562 567.263L185.039 562.389H185.912L187.418 567.366ZM195.275 560.813V562.389H196.459V563.25H195.275V567.288C195.275 567.548 195.328 567.745 195.434 567.877C195.539 568.005 195.719 568.069 195.973 568.069C196.098 568.069 196.27 568.045 196.488 567.997V568.9C196.203 568.98 195.926 569.02 195.656 569.02C195.172 569.02 194.807 568.87 194.561 568.569C194.314 568.268 194.191 567.841 194.191 567.288V563.25H193.037V562.389H194.191V560.813H195.275ZM201.645 568.9C201.582 568.771 201.531 568.542 201.492 568.214C200.988 568.751 200.387 569.02 199.688 569.02C199.062 569.02 198.549 568.839 198.146 568.479C197.748 568.113 197.549 567.652 197.549 567.094C197.549 566.417 197.799 565.891 198.299 565.518C198.803 565.141 199.51 564.952 200.42 564.952H201.475V564.441C201.475 564.052 201.361 563.743 201.135 563.514C200.908 563.281 200.574 563.165 200.133 563.165C199.746 563.165 199.422 563.266 199.16 563.466C198.898 563.666 198.768 563.91 198.768 564.194H197.678C197.678 563.87 197.789 563.557 198.012 563.256C198.238 562.951 198.543 562.71 198.926 562.534C199.312 562.357 199.736 562.269 200.197 562.269C200.928 562.269 201.5 562.458 201.914 562.835C202.328 563.207 202.543 563.723 202.559 564.381V567.378C202.559 567.976 202.633 568.45 202.781 568.803V568.9H201.645ZM199.846 568.052C200.186 568.052 200.508 567.961 200.812 567.78C201.117 567.6 201.338 567.366 201.475 567.077V565.741H200.625C199.297 565.741 198.633 566.139 198.633 566.938C198.633 567.288 198.746 567.56 198.973 567.757C199.199 567.953 199.49 568.052 199.846 568.052ZM207.949 567.173C207.949 566.872 207.838 566.639 207.615 566.475C207.396 566.307 207.012 566.162 206.461 566.042C205.914 565.922 205.479 565.777 205.154 565.608C204.834 565.44 204.596 565.24 204.439 565.007C204.287 564.774 204.211 564.497 204.211 564.176C204.211 563.643 204.43 563.191 204.867 562.822C205.309 562.454 205.871 562.269 206.555 562.269C207.273 562.269 207.855 562.46 208.301 562.841C208.75 563.222 208.975 563.709 208.975 564.302H207.885C207.885 563.998 207.758 563.735 207.504 563.514C207.254 563.294 206.938 563.184 206.555 563.184C206.16 563.184 205.852 563.272 205.629 563.448C205.406 563.624 205.295 563.855 205.295 564.14C205.295 564.409 205.398 564.611 205.605 564.748C205.812 564.884 206.186 565.015 206.725 565.139C207.268 565.263 207.707 565.412 208.043 565.584C208.379 565.756 208.627 565.966 208.787 566.21C208.951 566.451 209.033 566.745 209.033 567.094C209.033 567.677 208.807 568.144 208.354 568.496C207.9 568.845 207.312 569.02 206.59 569.02C206.082 569.02 205.633 568.928 205.242 568.744C204.852 568.559 204.545 568.302 204.322 567.974C204.104 567.64 203.994 567.281 203.994 566.896H205.078C205.098 567.269 205.242 567.566 205.512 567.787C205.785 568.003 206.145 568.111 206.59 568.111C207 568.111 207.328 568.027 207.574 567.859C207.824 567.686 207.949 567.458 207.949 567.173ZM212.215 565.885L211.535 566.613V568.9H210.451V559.657H211.535V565.247L212.115 564.531L214.09 562.389H215.408L212.941 565.109L215.695 568.9H214.424L212.215 565.885Z" fill="#888888"/>
</g>
</g>
<defs>
<filter id="filter0_d" x="0" y="0.36969" width="489" height="631.204" filterUnits="userSpaceOnUse" color-interpolation-filters="sRGB">
<feFlood flood-opacity="0" result="BackgroundImageFix"/>
<feColorMatrix in="SourceAlpha" type="matrix" values="0 0 0 0 0 0 0 0 0 0 0 0 0 0 0 0 0 0 127 0"/>
<feOffset dy="11"/>
<feGaussianBlur stdDeviation="13"/>
<feColorMatrix type="matrix" values="0 0 0 0 0 0 0 0 0 0 0 0 0 0 0 0 0 0 0.23 0"/>
<feBlend mode="normal" in2="BackgroundImageFix" result="effect1_dropShadow"/>
<feBlend mode="normal" in="SourceGraphic" in2="effect1_dropShadow" result="shape"/>
</filter>
<filter id="filter1_d" x="28" y="528.091" width="433" height="64.3748" filterUnits="userSpaceOnUse" color-interpolation-filters="sRGB">
<feFlood flood-opacity="0" result="BackgroundImageFix"/>
<feColorMatrix in="SourceAlpha" type="matrix" values="0 0 0 0 0 0 0 0 0 0 0 0 0 0 0 0 0 0 127 0"/>
<feOffset dy="-4"/>
<feGaussianBlur stdDeviation="3"/>
<feColorMatrix type="matrix" values="0 0 0 0 0 0 0 0 0 0 0 0 0 0 0 0 0 0 0.12 0"/>
<feBlend mode="normal" in2="BackgroundImageFix" result="effect1_dropShadow"/>
<feBlend mode="normal" in="SourceGraphic" in2="effect1_dropShadow" result="shape"/>
</filter>
<clipPath id="clip0">
<rect x="26" y="15.3697" width="437" height="579.204" rx="20" fill="white"/>
</clipPath>
</defs>
</svg>
