<svg width="165" height="51" viewBox="0 0 165 51" fill="none" xmlns="http://www.w3.org/2000/svg">
<path d="M3.07349 40.4103V10.0283H11.7303C14.6038 10.0283 16.7619 10.71 18.2047 12.0732C19.6596 13.4365 20.3871 15.4537 20.3871 18.1246C20.3871 19.5435 20.0355 20.8025 19.3323 21.9015C18.6291 22.9865 17.6712 23.8282 16.4588 24.4264C17.8895 24.8854 19.017 25.7618 19.8415 27.0556C20.6781 28.3354 21.0963 29.8656 21.0963 31.6462C21.0963 34.3728 20.3265 36.5151 18.7867 38.0732C17.2469 39.6312 15.0705 40.4103 12.2577 40.4103H3.07349ZM6.56532 26.2V37.1342H12.3305C13.9551 37.1342 15.2342 36.6542 16.1678 35.6944C17.1135 34.7206 17.5864 33.3851 17.5864 31.688C17.5864 28.0293 15.8526 26.2 12.385 26.2H6.56532ZM6.56532 22.9865H11.8394C13.3671 22.9865 14.5856 22.5483 15.4949 21.6719C16.4163 20.7956 16.8771 19.6062 16.8771 18.1037C16.8771 16.4344 16.4527 15.2241 15.604 14.4729C14.7553 13.7078 13.4641 13.3253 11.7303 13.3253H6.56532V22.9865ZM38.2733 38.1775C36.9638 39.9442 35.0421 40.8276 32.5081 40.8276C30.4105 40.8276 28.8101 40.1321 27.7068 38.7409C26.6156 37.3359 26.064 35.2631 26.0518 32.5227V17.8325H29.4163V32.4183C29.4163 35.8404 30.6288 37.5515 33.0536 37.5515C35.624 37.5515 37.3335 36.4525 38.1824 34.2546V17.8325H41.5468V40.4103H38.3459L38.2733 38.1775ZM58.5053 34.4215C58.5053 33.3782 58.1597 32.5713 57.4688 32.001C56.7898 31.4167 55.5957 30.9159 53.8861 30.4986C52.1884 30.0812 50.8367 29.5804 49.8303 28.9962C48.8362 28.4119 48.0965 27.7163 47.6116 26.9095C47.1389 26.1027 46.9024 25.1428 46.9024 24.0299C46.9024 22.1797 47.5814 20.6147 48.9394 19.3349C50.3093 18.055 52.055 17.4151 54.177 17.4151C56.408 17.4151 58.2144 18.0759 59.5966 19.3975C60.9907 20.719 61.688 22.4092 61.688 24.4681H58.3053C58.3053 23.4109 57.9112 22.4997 57.1231 21.7345C56.3473 20.9694 55.3651 20.5869 54.177 20.5869C52.9523 20.5869 51.9947 20.8929 51.3034 21.505C50.6125 22.1171 50.2669 22.917 50.2669 23.9047C50.2669 24.8367 50.5883 25.5392 51.2308 26.0122C51.8733 26.4852 53.0313 26.9373 54.7044 27.3685C56.3897 27.7998 57.7537 28.3145 58.7962 28.9127C59.8391 29.5109 60.609 30.2343 61.1062 31.0828C61.6154 31.9175 61.8698 32.94 61.8698 34.1503C61.8698 36.1674 61.1665 37.788 59.7601 39.0122C58.3537 40.2224 56.529 40.8276 54.2861 40.8276C52.7098 40.8276 51.3157 40.5077 50.1034 39.8677C48.8906 39.2278 47.939 38.3375 47.2481 37.1968C46.5691 36.0421 46.2294 34.7971 46.2294 33.4616H49.5938C49.6545 34.7554 50.1034 35.7848 50.9399 36.5499C51.7884 37.3011 52.9039 37.6767 54.2861 37.6767C55.5592 37.6767 56.5775 37.3846 57.3414 36.8003C58.1172 36.2021 58.5053 35.4092 58.5053 34.4215ZM73.0633 34.7554L77.6464 17.8325H81.2474L73.336 43.8949C72.1117 47.6509 70.1656 49.5291 67.4984 49.5291L66.8618 49.4662L65.607 49.1953V46.065L66.5162 46.1487C67.6559 46.1487 68.5409 45.8842 69.1715 45.3556C69.814 44.8269 70.3414 43.8603 70.7537 42.4552L71.4993 40.1599L64.4792 17.8325H68.1528L73.0633 34.7554ZM109.381 26.993H98.2692V40.4103H94.7774V10.0283H111.182V13.3253H98.2692V23.7169H109.381V26.993ZM153.209 21.6719L159.556 10.0283H163.667L155.301 25.0941L163.867 40.4103H159.72L153.209 28.558L146.662 40.4103H142.534L151.118 25.0941L142.734 10.0283H146.826L153.209 21.6719Z" fill="url(#paint0_linear)"/>
<path d="M126.086 38.4094C126.281 38.6352 126.697 38.9941 127.382 39.0171C128.066 38.9941 128.482 38.6352 128.677 38.4094C128.123 38.3673 127.625 38.232 127.382 38.157C127.138 38.232 126.64 38.3673 126.086 38.4094Z" fill="white"/>
<path d="M123.341 29.2603L124.723 34.6123C125.011 34.1296 125.379 33.6566 125.82 33.2322L124.159 28.4211L123.341 29.2603Z" fill="#0CB4DC"/>
<path d="M127.382 36.9729C127.577 36.9452 128.802 36.8008 128.9 36.6294C129.099 36.278 129.05 35.7655 128.948 35.4335C128.852 35.1194 127.999 34.948 127.382 34.9188C126.764 34.948 125.911 35.1194 125.815 35.4335C125.713 35.7655 125.665 36.278 125.864 36.6294C125.961 36.8008 127.186 36.9452 127.382 36.9729Z" fill="#231F20"/>
<path d="M125.462 35.3201C125.663 34.6654 126.978 34.5574 127.379 34.5397V34.5395C127.38 34.5395 127.38 34.5396 127.382 34.5396C127.382 34.5396 127.383 34.5395 127.384 34.5395V34.5397C127.785 34.5574 129.1 34.6654 129.301 35.3201C129.431 35.7451 129.477 36.3618 129.218 36.8193C129.064 37.0932 128.813 37.276 128.495 37.3476C127.701 37.5258 127.509 37.6057 127.503 37.608H127.26C127.255 37.6057 127.062 37.5258 126.268 37.3476C125.95 37.276 125.699 37.0932 125.545 36.8193C125.286 36.3618 125.332 35.7451 125.462 35.3201ZM124.984 37.6043C125.835 38.1794 127.151 37.8276 127.379 37.7601V37.7584C127.379 37.7586 127.381 37.7589 127.382 37.7592C127.382 37.7589 127.383 37.7586 127.384 37.7584V37.7601C127.612 37.8276 128.928 38.1794 129.779 37.6043C129.999 37.4559 130.106 37.0951 130.073 36.614C129.98 35.2715 129.208 33.5231 127.382 32.5571C125.555 33.5231 124.784 35.2715 124.691 36.614C124.658 37.0951 124.765 37.4559 124.984 37.6043Z" fill="white"/>
<path d="M130.785 36.8614C130.802 37.4374 130.639 37.8699 130.32 38.0858C129.978 38.3163 129.552 38.4051 129.125 38.4191L129.128 38.421C129.106 38.4602 128.579 39.3609 127.384 39.396V39.3963C127.383 39.3963 127.382 39.3962 127.381 39.3962C127.38 39.3962 127.38 39.3963 127.379 39.3963V39.396C126.184 39.3609 125.656 38.4602 125.634 38.421L125.637 38.4191C125.21 38.4051 124.784 38.3163 124.443 38.0858C124.124 37.8699 123.96 37.4374 123.979 36.8614C121.854 34.5317 118.858 34.4834 117.081 34.713C118.098 36.4022 123.938 43.1815 127.331 44.0261H127.432C130.825 43.1815 136.665 36.4022 137.682 34.713C135.905 34.4834 132.91 34.5317 130.785 36.8614Z" fill="white"/>
<path d="M124.035 36.3628C124.057 36.2444 124.084 36.1231 124.118 35.9998L124.102 36.0086C121.947 32.4754 119.985 31.1564 117.801 30.1971C116.637 29.6856 115.475 29.4119 114.59 29.2652L115.822 33.6596C116.444 33.618 117.309 33.6045 118.287 33.7163C119.975 33.9092 122.302 34.5297 124.035 36.3628Z" fill="white"/>
<path d="M130.04 34.6123L131.423 29.2603L130.604 28.4211L128.942 33.2322C129.384 33.6566 129.751 34.1296 130.04 34.6123Z" fill="#0CB4DC"/>
<path d="M130.661 36.0086L130.645 35.9998C130.678 36.1231 130.706 36.2444 130.728 36.3628C132.461 34.5297 134.788 33.9092 136.476 33.7163C137.454 33.6045 138.318 33.618 138.941 33.6596L140.172 29.2652C139.288 29.4119 138.125 29.6856 136.962 30.1971C134.779 31.1564 132.817 32.4754 130.661 36.0086Z" fill="white"/>
<path d="M124.541 28.1205L126.093 32.985C126.476 32.6578 126.905 32.3676 127.378 32.136V32.1332C127.38 32.1337 127.38 32.1341 127.381 32.1346C127.383 32.1341 127.383 32.1337 127.384 32.1332V32.136C127.858 32.3676 128.287 32.6578 128.669 32.985L130.221 28.1205C128.948 27.6733 127.827 26.6422 127.381 26.1939C126.936 26.6422 125.815 27.6733 124.541 28.1205Z" fill="#0CB4DC"/>
<path d="M139.154 16.4543C139.374 14.0702 139.443 11.0733 138.003 7.689C135.376 11.8436 136.755 15.2716 136.755 15.2716L135.892 14.3255C135.892 15.9339 136.578 17.9593 136.578 17.9593C136.975 18.5463 137.566 19.4204 138.254 20.5117C138.494 19.9064 138.965 18.5125 139.154 16.4543Z" fill="#0CB4DC"/>
<path d="M123.338 25.8187C123.254 25.7352 123.165 25.66 123.071 25.596C123.012 25.6284 122.972 25.6914 122.972 25.7648C122.972 25.8709 123.055 25.957 123.159 25.957C123.244 25.957 123.315 25.8984 123.338 25.8187Z" fill="white"/>
<path d="M122.317 26.4719C121.813 26.1603 121.697 25.6282 121.674 25.3159C121.601 25.3285 121.532 25.3439 121.47 25.3605C121.546 25.6965 121.796 26.5063 122.47 26.6783C123.284 26.8865 123.734 26.5716 123.834 26.4901C123.823 26.4708 123.812 26.4514 123.801 26.4321C123.607 26.5242 123.291 26.644 122.951 26.644C122.741 26.644 122.522 26.5983 122.317 26.4719Z" fill="white"/>
<path d="M118.009 15.2716C118.009 15.2716 119.387 11.8436 116.759 7.689C115.32 11.0733 115.389 14.0702 115.609 16.4543C115.799 18.5125 116.268 19.9064 116.509 20.5117C117.197 19.4204 117.788 18.5463 118.186 17.9593C118.186 17.9593 118.87 15.9339 118.87 14.3255L118.009 15.2716Z" fill="#0CB4DC"/>
<path d="M131.791 25.7648C131.791 25.6914 131.75 25.6284 131.693 25.596C131.598 25.66 131.509 25.7352 131.425 25.8187C131.448 25.8984 131.518 25.957 131.605 25.957C131.708 25.957 131.791 25.8709 131.791 25.7648Z" fill="white"/>
<path d="M136.449 17.7704C136.49 17.8309 136.532 17.8943 136.577 17.9593C135.072 15.6786 135.246 12.9063 135.246 12.9063L135.77 13.474C135.185 10.9194 137.693 7.00085 137.693 7.00085C136.802 7.46282 132.761 9.7297 130.367 12.9731L130.331 13.0221L130.25 13.0408C130.499 13.6329 130.938 14.6525 131.21 15.1106C131.591 15.7582 132.817 17.4445 132.817 17.4445C132.756 17.3858 131.302 15.9992 130.893 15.3065C130.595 14.8006 130.022 13.6882 129.751 13.1551L127.384 13.6983V13.6996L127.381 13.699L127.378 13.6996V13.6983L125.011 13.1551C124.74 13.6882 124.168 14.8006 123.87 15.3065C123.461 15.9992 122.007 17.3858 121.945 17.4445C121.945 17.4445 123.172 15.7582 123.554 15.1106C123.824 14.6525 124.264 13.6329 124.513 13.0408L124.431 13.0221L124.395 12.9731C122.002 9.7297 117.961 7.46282 117.07 7.00085C117.07 7.00085 119.578 10.9194 118.993 13.474L119.516 12.9063C119.516 12.9063 119.691 15.6786 118.186 17.9593C118.23 17.8943 118.273 17.8309 118.314 17.7704L117.548 19.6096C116.369 21.4942 114.6 24.2715 113.813 27.9778C114.625 28.14 115.81 28.4503 117.145 29.0353C119.329 29.9926 122.311 31.8932 124.272 35.5344C124.34 35.3562 124.421 35.1758 124.512 34.9953L122.879 29.5609C122.316 29.875 121.235 30.4781 121.235 30.4781C121.619 29.8885 122.337 29.4257 122.749 29.1939C122.714 29.1945 122.678 29.1956 122.644 29.1956C121.663 29.1956 120.908 28.9183 120.395 28.3677C119.45 27.3539 119.689 25.8055 119.699 25.74C119.699 25.74 119.704 25.7884 119.717 25.872C119.798 26.3922 120.238 28.282 122.32 28.139C123.514 28.0569 123.908 27.4267 124.002 26.8113C123.997 26.8003 123.991 26.7891 123.986 26.7782C123.836 26.879 123.462 27.0825 122.891 27.0825C122.725 27.0825 122.542 27.0651 122.344 27.0235C121.747 26.8974 121.428 26.4258 121.259 25.9997L119.286 25.0408L119.712 24.8858C121.2 24.3447 122.434 24.3741 123.379 24.9741C124.009 25.3736 124.404 25.9577 124.649 26.4892L124.49 24.4781L125.193 27.1206C126.146 26.671 126.937 26.1177 127.153 25.8918L127.292 24.0809L127.381 24.5376L127.47 24.0809L127.61 25.8918C127.826 26.1177 128.617 26.671 129.571 27.1206L130.273 24.4781L130.113 26.4892C130.36 25.9577 130.753 25.3736 131.384 24.9741C132.329 24.3741 133.562 24.3447 135.05 24.8858L135.477 25.0408L133.504 25.9997C133.334 26.4258 133.016 26.8974 132.419 27.0235C132.221 27.0651 132.038 27.0825 131.873 27.0825C131.3 27.0825 130.927 26.879 130.777 26.7782C130.772 26.7891 130.766 26.8003 130.761 26.8113C130.855 27.4267 131.249 28.0569 132.444 28.139C134.525 28.282 134.964 26.3922 135.046 25.872C135.058 25.7884 135.063 25.74 135.063 25.74C135.073 25.8055 135.312 27.3539 134.368 28.3677C133.855 28.9183 133.099 29.1956 132.119 29.1956C132.085 29.1956 132.048 29.1945 132.014 29.1939C132.426 29.4257 133.143 29.8885 133.527 30.4781C133.527 30.4781 132.447 29.875 131.884 29.5609L130.251 34.9953C130.342 35.1758 130.422 35.3562 130.491 35.5344C132.452 31.8932 135.434 29.9926 137.617 29.0353C138.952 28.4503 140.137 28.14 140.95 27.9778C140.163 24.2715 138.394 21.4942 137.214 19.6096L136.449 17.7704Z" fill="#0CB4DC"/>
<path d="M130.929 26.4901C131.029 26.5716 131.479 26.8865 132.293 26.6783C132.968 26.5063 133.217 25.6965 133.292 25.3605C133.231 25.3439 133.162 25.3285 133.088 25.3159C133.066 25.6282 132.95 26.1603 132.445 26.4719C132.241 26.5983 132.022 26.644 131.812 26.644C131.471 26.644 131.154 26.5242 130.962 26.4321C130.951 26.4514 130.94 26.4708 130.929 26.4901Z" fill="white"/>
<path d="M127.381 39.3245V44.2299C127.381 44.2299 125.866 39.9894 123.655 38.157C121.443 36.3245 118.2 36.8214 118.2 36.8214L116.473 34.2124L120.746 34.5394L122.291 35.2426C122.291 35.2426 120.101 31.9449 114.59 31.1683L113.813 28.7921C113.813 28.7921 121.362 30.3401 124.251 35.7654L124.118 37.4843L125.82 38.2918C125.82 38.2918 126.25 39.1147 127.381 39.3245Z" fill="#CECDCD"/>
<path d="M119.286 25.0408L120.988 26.1939C120.988 26.1939 121.139 26.8818 121.928 27.2856C121.928 27.2856 120.309 27.4555 119.717 25.872C119.717 25.872 119.049 28.523 121.034 29.5894L120.518 30.718L122.442 30.485L124.685 35.0666L123.427 30.1432L124.018 29.5894L126.033 33.3582L124.756 28.7921C124.756 28.7921 126.523 27.9276 127.381 26.4781V24.7592L126.917 21.2677C126.917 21.2677 126.534 25.2629 126.482 25.3159C126.431 25.3689 125.644 25.957 125.604 25.957C125.564 25.957 124.24 22.9991 124.24 22.9991L124.301 25.8671L123.735 26.8197L123.155 26.8508L122.23 26.7484L121.322 25.596L119.286 25.0408Z" fill="#3087ED"/>
<path d="M113.524 27.0061C113.524 27.0061 119.802 28.1275 123.834 33.3287L123.968 33.2288L124.685 35.0666L124.251 35.7654L121.554 32.2761L117.584 29.6567L112.888 27.9586L113.524 27.0061Z" fill="#3087ED"/>
<path d="M116.534 20.8093C116.534 20.8093 118.218 18.3034 118.806 16.5073C119.395 14.7111 119.125 13.7583 119.125 13.7583C119.125 13.7583 118.609 14.1004 118.549 14.1004C118.488 14.1004 118.715 8.49332 116.791 7.577C116.791 7.577 113.322 12.2828 116.534 20.8093Z" fill="#3087ED"/>
<path d="M120.21 8.57614C120.21 8.57614 122.473 10.9989 122.655 13.0077C122.836 15.0163 120.958 18.4952 120.958 18.4952C120.958 18.4952 124.271 16.5073 125.463 13.1319L124.573 12.7178C124.573 12.7178 121.301 9.1767 120.21 8.57614Z" fill="#3087ED"/>
<path d="M127.382 39.0968V37.2408C127.382 37.2408 125.902 37.7378 125.2 37.0183C124.498 36.2985 125.386 34.4443 125.386 34.4443C125.386 34.4443 124.24 35.9854 124.463 36.9729C124.685 37.9605 125.764 38.2651 125.764 38.2651C125.764 38.2651 126.149 39.0968 127.382 39.0968Z" fill="#CECDCD"/>
<path d="M127.381 39.3245V44.2299C127.381 44.2299 128.896 39.9894 131.109 38.157C133.32 36.3245 136.562 36.8214 136.562 36.8214L138.29 34.2124L134.017 34.5394L132.472 35.2426C132.472 35.2426 134.661 31.9449 140.172 31.1683L140.95 28.7921C140.95 28.7921 133.4 30.3401 130.513 35.7654L130.645 37.4843L128.942 38.2918C128.942 38.2918 128.513 39.1147 127.381 39.3245Z" fill="#CECDCD"/>
<path d="M135.477 25.0408L133.775 26.1939C133.775 26.1939 133.623 26.8818 132.836 27.2856C132.836 27.2856 134.454 27.4555 135.046 25.872C135.046 25.872 135.713 28.523 133.73 29.5894L134.244 30.718L132.32 30.485L130.077 35.0666L131.335 30.1432L130.746 29.5894L128.73 33.3582L130.007 28.7921C130.007 28.7921 128.24 27.9276 127.381 26.4781V24.7592L127.846 21.2677C127.846 21.2677 128.228 25.2629 128.28 25.3159C128.332 25.3689 129.119 25.957 129.158 25.957C129.199 25.957 130.523 22.9991 130.523 22.9991L130.461 25.8671L131.027 26.8197L131.608 26.8508L132.533 26.7484L133.441 25.596L135.477 25.0408Z" fill="#3087ED"/>
<path d="M141.238 27.0061C141.238 27.0061 134.961 28.1275 130.929 33.3287L130.795 33.2288L130.077 35.0666L130.513 35.7654L133.209 32.2761L137.178 29.6567L141.875 27.9586L141.238 27.0061Z" fill="#3087ED"/>
<path d="M138.229 20.8093C138.229 20.8093 136.545 18.3034 135.957 16.5073C135.368 14.7111 135.638 13.7583 135.638 13.7583C135.638 13.7583 136.153 14.1004 136.214 14.1004C136.275 14.1004 136.047 8.49332 137.972 7.577C137.972 7.577 141.441 12.2828 138.229 20.8093Z" fill="#3087ED"/>
<path d="M134.553 8.57614C134.553 8.57614 132.29 10.9989 132.108 13.0077C131.926 15.0163 133.805 18.4952 133.805 18.4952C133.805 18.4952 130.493 16.5073 129.301 13.1319L130.189 12.7178C130.189 12.7178 133.462 9.1767 134.553 8.57614Z" fill="#3087ED"/>
<path d="M127.381 39.0968V37.2408C127.381 37.2408 128.862 37.7378 129.563 37.0183C130.265 36.2985 129.378 34.4443 129.378 34.4443C129.378 34.4443 130.523 35.9854 130.3 36.9729C130.079 37.9605 128.998 38.2651 128.998 38.2651C128.998 38.2651 128.614 39.0968 127.381 39.0968Z" fill="#CECDCD"/>
<path d="M122.972 25.7648C122.972 25.6914 123.012 25.6284 123.071 25.596C123.165 25.66 123.254 25.7351 123.338 25.8187C123.315 25.8984 123.244 25.957 123.159 25.957C123.055 25.957 122.972 25.8709 122.972 25.7648ZM123.801 26.4321C123.812 26.4514 123.823 26.4708 123.834 26.4901C123.734 26.5716 123.284 26.8865 122.469 26.6783C121.796 26.5063 121.546 25.6965 121.47 25.3603C121.532 25.3439 121.601 25.3285 121.674 25.3159C121.697 25.6283 121.812 26.1603 122.317 26.4719C122.522 26.5983 122.741 26.644 122.951 26.644C123.291 26.644 123.607 26.5242 123.801 26.4321ZM131.425 25.8187C131.509 25.7351 131.598 25.66 131.693 25.596C131.751 25.6284 131.791 25.6914 131.791 25.7648C131.791 25.8709 131.708 25.957 131.605 25.957C131.518 25.957 131.448 25.8984 131.425 25.8187ZM131.812 26.644C132.022 26.644 132.241 26.5983 132.447 26.4719C132.95 26.1603 133.066 25.6283 133.088 25.3159C133.162 25.3285 133.231 25.3439 133.292 25.3603C133.217 25.6965 132.968 26.5063 132.293 26.6783C131.479 26.8865 131.029 26.5716 130.929 26.4901C130.94 26.4708 130.951 26.4514 130.962 26.4321C131.155 26.5242 131.471 26.644 131.812 26.644ZM137.617 29.0353C135.434 29.9927 132.452 31.8933 130.491 35.5345C130.422 35.3562 130.342 35.1757 130.251 34.9953L131.884 29.5609C132.447 29.8751 133.527 30.4781 133.527 30.4781C133.143 29.8886 132.426 29.4257 132.014 29.1939C132.049 29.1945 132.085 29.1956 132.119 29.1956C133.099 29.1956 133.855 28.9183 134.368 28.3676C135.312 27.3539 135.074 25.8055 135.063 25.74C135.063 25.74 135.058 25.7884 135.046 25.872C134.964 26.3922 134.525 28.2818 132.444 28.139C131.249 28.0569 130.855 27.4267 130.761 26.8112C130.766 26.8003 130.772 26.7892 130.777 26.7782C130.927 26.879 131.3 27.0825 131.873 27.0825C132.038 27.0825 132.221 27.0651 132.419 27.0235C133.016 26.8974 133.334 26.4259 133.504 25.9997L135.477 25.0408L135.05 24.8858C133.562 24.3447 132.329 24.3742 131.384 24.9742C130.753 25.3736 130.36 25.9577 130.115 26.4893L130.273 24.4781L129.571 27.1206C128.617 26.671 127.826 26.1177 127.61 25.8918L127.47 24.0809L127.381 24.5376L127.292 24.0809L127.153 25.8918C126.937 26.1177 126.146 26.671 125.193 27.1206L124.49 24.4781L124.649 26.4893C124.404 25.9577 124.009 25.3736 123.38 24.9742C122.434 24.3742 121.2 24.3447 119.712 24.8858L119.286 25.0408L121.259 25.9997C121.428 26.4259 121.747 26.8974 122.344 27.0235C122.542 27.0651 122.725 27.0825 122.891 27.0825C123.462 27.0825 123.836 26.879 123.986 26.7782C123.991 26.7892 123.997 26.8003 124.002 26.8112C123.908 27.4267 123.514 28.0569 122.32 28.139C120.238 28.2818 119.798 26.3922 119.717 25.872C119.704 25.7884 119.699 25.74 119.699 25.74C119.689 25.8055 119.45 27.3539 120.395 28.3676C120.908 28.9183 121.663 29.1956 122.644 29.1956C122.678 29.1956 122.714 29.1945 122.749 29.1939C122.337 29.4257 121.619 29.8886 121.235 30.4781C121.235 30.4781 122.316 29.8751 122.879 29.5609L124.512 34.9953C124.421 35.1757 124.34 35.3562 124.272 35.5345C122.311 31.8933 119.329 29.9927 117.145 29.0353C115.81 28.4503 114.625 28.14 113.813 27.9778C114.6 24.2714 116.37 21.4942 117.548 19.6096L118.314 17.7704C118.273 17.8309 118.23 17.8943 118.186 17.9593C117.788 18.5464 117.197 19.4204 116.509 20.5117C116.268 19.9065 115.799 18.5126 115.609 16.4543C115.389 14.0703 115.32 11.0734 116.759 7.68907C119.387 11.8436 118.008 15.2717 118.008 15.2717L118.87 14.3256C118.87 15.9339 118.186 17.9593 118.186 17.9593C119.691 15.6785 119.516 12.9063 119.516 12.9063L118.993 13.474C119.578 10.9194 117.07 7.00086 117.07 7.00086C117.961 7.46283 122.002 9.72971 124.395 12.9731L124.431 13.0221L124.513 13.0408C124.264 13.633 123.824 14.6525 123.554 15.1106C123.172 15.7582 121.945 17.4445 121.945 17.4445C122.007 17.3858 123.461 15.9992 123.87 15.3065C124.168 14.8006 124.74 13.6882 125.011 13.1551L127.378 13.6983V13.6996L127.381 13.699L127.384 13.6996V13.6983L129.751 13.1551C130.023 13.6882 130.595 14.8006 130.893 15.3065C131.302 15.9992 132.756 17.3858 132.817 17.4445C132.817 17.4445 131.591 15.7582 131.21 15.1106C130.938 14.6525 130.499 13.633 130.25 13.0408L130.331 13.0221L130.367 12.9731C132.761 9.72971 136.802 7.46283 137.693 7.00086C137.693 7.00086 135.185 10.9194 135.77 13.474L135.246 12.9063C135.246 12.9063 135.072 15.6785 136.578 17.9593C136.578 17.9593 135.893 15.9339 135.893 14.3256L136.755 15.2717C136.755 15.2717 135.376 11.8436 138.003 7.68907C139.443 11.0734 139.374 14.0703 139.154 16.4543C138.965 18.5126 138.494 19.9065 138.254 20.5117C137.566 19.4204 136.975 18.5464 136.578 17.9593C136.532 17.8943 136.49 17.8309 136.449 17.7704L137.214 19.6096C138.394 21.4942 140.163 24.2714 140.95 27.9778C140.137 28.14 138.952 28.4503 137.617 29.0353ZM138.941 33.6597C138.318 33.618 137.454 33.6045 136.476 33.7164C134.788 33.9092 132.461 34.5298 130.728 36.3629C130.706 36.2444 130.678 36.1231 130.645 35.9998L130.661 36.0086C132.817 32.4755 134.779 31.1565 136.962 30.1971C138.125 29.6857 139.288 29.4119 140.172 29.2652L138.941 33.6597ZM128.677 38.4094C128.482 38.6352 128.066 38.9941 127.381 39.0171C126.697 38.9941 126.281 38.6352 126.086 38.4094C126.64 38.3673 127.138 38.2321 127.381 38.1571C127.625 38.2321 128.123 38.3673 128.677 38.4094ZM124.691 36.614C124.784 35.2715 125.555 33.5232 127.381 32.5571C129.208 33.5232 129.98 35.2715 130.072 36.614C130.106 37.0951 129.999 37.4559 129.779 37.6044C128.928 38.1794 127.612 37.8276 127.384 37.7601V37.7583C127.383 37.7586 127.382 37.7589 127.381 37.7592C127.381 37.7589 127.38 37.7586 127.378 37.7583V37.7601C127.151 37.8276 125.835 38.1794 124.984 37.6044C124.765 37.4559 124.658 37.0951 124.691 36.614ZM125.82 33.2322C125.379 33.6566 125.011 34.1296 124.723 34.6123L123.341 29.2603L124.159 28.4212L125.82 33.2322ZM130.604 28.4212L131.423 29.2603L130.04 34.6123C129.751 34.1296 129.384 33.6566 128.942 33.2322L130.604 28.4212ZM128.669 32.985C128.287 32.6578 127.858 32.3676 127.384 32.1361V32.1333C127.383 32.1337 127.383 32.1342 127.381 32.1346C127.38 32.1342 127.38 32.1337 127.378 32.1333V32.1361C126.905 32.3676 126.476 32.6578 126.093 32.985L124.541 28.1205C125.815 27.6733 126.936 26.6422 127.381 26.1939C127.827 26.6422 128.948 27.6733 130.221 28.1205L128.669 32.985ZM127.432 44.0261H127.331C123.938 43.1815 118.098 36.4022 117.081 34.713C118.858 34.4834 121.854 34.5317 123.979 36.8614C123.961 37.4374 124.124 37.8699 124.443 38.0859C124.784 38.3163 125.211 38.4051 125.637 38.4191L125.634 38.421C125.656 38.4602 126.184 39.361 127.378 39.396V39.3963C127.38 39.3963 127.38 39.3962 127.381 39.3962C127.383 39.3962 127.383 39.3963 127.384 39.3963V39.396C128.579 39.361 129.107 38.4602 129.129 38.421L129.125 38.4191C129.552 38.4051 129.979 38.3163 130.321 38.0859C130.639 37.8699 130.802 37.4374 130.785 36.8614C132.91 34.5317 135.905 34.4834 137.682 34.713C136.665 36.4022 130.825 43.1815 127.432 44.0261ZM115.822 33.6597L114.59 29.2652C115.475 29.4119 116.637 29.6857 117.801 30.1971C119.985 31.1565 121.947 32.4755 124.102 36.0086L124.118 35.9998C124.084 36.1231 124.057 36.2444 124.035 36.3629C122.302 34.5298 119.975 33.9092 118.287 33.7164C117.309 33.6045 116.444 33.618 115.822 33.6597ZM138.847 21.4689C139.021 20.9417 139.562 19.1591 139.783 16.7679C140.028 14.1317 139.924 10.1908 138.046 6.3871L137.964 6.22223L137.801 6.30193C137.749 6.32706 132.653 8.84907 129.925 12.5066L127.381 13.3021L124.838 12.5066C122.11 8.84907 117.013 6.32706 116.961 6.30193L116.799 6.22223L116.717 6.3871C114.838 10.1908 114.735 14.1317 114.979 16.7679C115.201 19.1591 115.742 20.9417 115.916 21.4689C114.83 23.2544 113.592 25.4765 112.514 27.9191L112.483 27.9901L112.886 29.0973L113.442 29.1389L114.688 34.049L114.704 34.0706C114.716 34.0877 114.995 34.4684 115.49 35.0801L115.988 34.9376C117.845 37.24 122.083 42.6807 127.199 44.6838H127.564C132.679 42.6807 136.918 37.24 138.775 34.9376L139.273 35.0801C139.768 34.4684 140.047 34.0877 140.059 34.0706L140.075 34.049L141.32 29.1389L141.877 29.0973L142.28 27.9901L142.249 27.9191C141.171 25.4765 139.932 23.2544 138.847 21.4689Z" fill="#231F20"/>
<path d="M125.815 35.4334C125.911 35.1194 126.764 34.948 127.382 34.9187C127.999 34.948 128.852 35.1194 128.948 35.4334C129.05 35.7655 129.099 36.278 128.9 36.6294C128.802 36.8008 127.577 36.9452 127.382 36.9729C127.186 36.9452 125.961 36.8008 125.864 36.6294C125.665 36.278 125.713 35.7655 125.815 35.4334ZM126.268 37.3475C127.062 37.5258 127.255 37.6056 127.26 37.608H127.503C127.509 37.6056 127.701 37.5258 128.495 37.3475C128.813 37.2759 129.064 37.0931 129.218 36.8192C129.477 36.3618 129.431 35.7451 129.301 35.3201C129.1 34.6654 127.785 34.5573 127.384 34.5397V34.5394C127.383 34.5394 127.382 34.5396 127.382 34.5396C127.38 34.5396 127.38 34.5394 127.379 34.5394V34.5397C126.978 34.5573 125.663 34.6654 125.462 35.3201C125.332 35.7451 125.286 36.3618 125.545 36.8192C125.699 37.0931 125.95 37.2759 126.268 37.3475Z" fill="#231F20"/>
<defs>
<linearGradient id="paint0_linear" x1="82.5" y1="0.666665" x2="82.5" y2="50.6667" gradientUnits="userSpaceOnUse">
<stop stop-color="#0CB4DC"/>
<stop offset="1" stop-color="#3087ED"/>
</linearGradient>
</defs>
</svg>
